<svg width="282" height="47" viewBox="0 0 282 47" fill="none" xmlns="http://www.w3.org/2000/svg">
<path d="M0.733236 36.5957C0.244412 36.5957 0 36.4575 0 36.1812C0 36.1259 0.0431315 35.9325 0.129395 35.6009C0.244412 35.1587 0.359429 34.91 0.474447 34.8547C0.589464 34.7995 0.920139 34.758 1.46647 34.7304C2.24284 34.7304 3.10547 34.6889 4.05436 34.606C4.45692 34.5231 4.73009 34.3573 4.87386 34.1086C4.93137 33.9704 5.95215 30.0878 7.9362 22.4608C9.92025 14.8338 10.9267 10.965 10.9554 10.8545C10.9554 10.661 10.8979 10.5643 10.7829 10.5643C10.5528 10.4814 9.79085 10.4123 8.49691 10.357H7.15983C6.98731 10.1912 6.90104 10.0807 6.90104 10.0254C6.90104 9.97016 6.9298 9.73527 6.98731 9.32076C7.10232 8.85098 7.2461 8.56082 7.41862 8.45028H30.6665C30.8678 8.56082 30.9684 8.71281 30.9684 8.90625C30.9684 9.04442 30.7815 10.5919 30.4077 13.5488C30.0339 16.5056 29.8326 18.0255 29.8039 18.1084C29.7464 18.3019 29.4588 18.3986 28.9412 18.3986H28.4237C28.2224 18.2604 28.1217 18.0808 28.1217 17.8597C28.1217 17.8321 28.1649 17.5005 28.2511 16.8649C28.3374 16.2293 28.3805 15.497 28.3805 14.668C28.3805 13.8389 28.2799 13.1619 28.0786 12.6369C27.8773 12.1118 27.6042 11.6835 27.2591 11.3519C26.9141 11.0203 26.3821 10.7992 25.6633 10.6887C24.9444 10.5781 24.2112 10.4814 23.4635 10.3985C22.7159 10.3156 21.6808 10.3018 20.3581 10.357H19.3661C17.0082 10.3847 15.7574 10.4261 15.6136 10.4814C15.4698 10.5367 15.3692 10.6472 15.3117 10.813C15.2829 10.8406 14.7941 12.6507 13.8452 16.2431L12.465 21.5903H14.8372C14.9235 21.5903 15.2542 21.5903 15.8293 21.5903C16.4044 21.5903 16.8069 21.5765 17.0369 21.5489C17.267 21.5213 17.5833 21.4798 17.9858 21.4245C18.3884 21.3693 18.7335 21.2725 19.021 21.1344C19.3085 20.9962 19.553 20.8304 19.7542 20.637C20.128 20.3053 20.4443 19.8494 20.7031 19.2691C20.9619 18.6887 21.1488 18.1637 21.2638 17.6939C21.3789 17.2241 21.4507 16.9754 21.4795 16.9478C21.5658 16.8096 21.8389 16.7405 22.299 16.7405H22.8166C23.0179 16.8787 23.1185 17.0169 23.1185 17.1551C23.1185 17.238 22.6728 19.048 21.7814 22.5852C20.89 26.1223 20.4012 27.9462 20.3149 28.0567C20.2574 28.2502 19.9699 28.3469 19.4523 28.3469H18.9347C18.7335 28.1811 18.6328 28.0153 18.6328 27.8495C18.6328 27.7666 18.7047 27.4626 18.8485 26.9375C18.9922 26.4125 19.0641 25.8598 19.0641 25.2795C19.0641 24.4781 18.7766 23.9807 18.2015 23.7873C17.6264 23.5938 16.3468 23.4971 14.3628 23.4971H11.9906L10.6104 28.7614C9.69021 32.188 9.23015 33.9843 9.23015 34.1501C9.23015 34.5369 10.5097 34.7304 13.0689 34.7304H14.1471C14.3197 34.8962 14.4059 34.9929 14.4059 35.0205C14.4059 35.0482 14.3772 35.3245 14.3197 35.8496C14.2046 36.2088 14.0609 36.4713 13.8883 36.6371H13.1551C11.9762 36.5819 9.80523 36.5542 6.64225 36.5542C4.77322 36.5542 3.34988 36.5542 2.37223 36.5542C1.39459 36.5542 0.848253 36.5681 0.733236 36.5957Z" fill="black"/>
<path d="M45.3652 22.2536C45.3652 21.8943 45.5665 21.618 45.9691 21.4245H73.4438C73.8752 21.6456 74.0908 21.922 74.0908 22.2536C74.0908 22.5575 73.8895 22.8201 73.487 23.0411L59.7712 23.0826H46.0553C45.5953 22.9444 45.3652 22.6681 45.3652 22.2536ZM45.3652 30.2951C45.3652 29.8806 45.5953 29.6043 46.0553 29.4661H73.487C73.8895 29.7424 74.0908 30.0188 74.0908 30.2951C74.0908 30.6544 73.8752 30.9307 73.4438 31.1241H45.9691C45.5665 30.9307 45.3652 30.6544 45.3652 30.2951Z" fill="black"/>
<path d="M93.7091 9.8182C93.7091 9.54186 93.7667 9.22407 93.8817 8.86483C93.9967 8.50558 94.1692 8.32596 94.3993 8.32596C94.428 8.32596 95.4632 8.25687 97.5047 8.1187C99.5463 7.98053 100.596 7.89763 100.653 7.87C100.998 7.87 101.171 7.98053 101.171 8.20161C101.171 8.39504 100.452 11.2828 99.0143 16.8649C97.5766 22.3365 96.8577 25.169 96.8577 25.3624C97.4041 25.0861 97.821 24.8236 98.1086 24.5749C98.7987 24.0774 99.7907 23.207 101.085 21.9634C102.379 20.7199 103.385 19.877 104.104 19.4349C105.254 18.6888 106.347 18.3157 107.382 18.3157C108.244 18.3157 108.92 18.5782 109.409 19.1033C109.898 19.6283 110.157 20.3745 110.185 21.3417C110.185 22.0325 110.085 22.6128 109.883 23.0826C109.682 23.5524 109.409 23.8978 109.064 24.1189C108.719 24.34 108.417 24.492 108.158 24.5749C107.899 24.6578 107.641 24.6992 107.382 24.6992C106.807 24.6992 106.347 24.5472 106.002 24.2432C105.657 23.9393 105.484 23.5386 105.484 23.0412C105.484 22.3503 105.714 21.7838 106.174 21.3417C106.634 20.8995 107.094 20.6094 107.554 20.4712L108.244 20.3468C107.899 20.0152 107.554 19.8494 107.209 19.8494H107.037C106.117 19.9323 105.211 20.2777 104.319 20.8857C103.428 21.4936 102.379 22.3779 101.171 23.5386C99.9632 24.6992 99.0143 25.5421 98.3242 26.0671C98.3817 26.0947 98.5974 26.1362 98.9712 26.1915C99.345 26.2467 99.6901 26.3296 100.006 26.4402C100.323 26.5507 100.696 26.6612 101.128 26.7718C101.559 26.8823 101.947 27.0758 102.292 27.3521C102.637 27.6284 102.954 27.8771 103.241 28.0982C103.529 28.3193 103.773 28.6785 103.974 29.1759C104.176 29.6734 104.262 30.1293 104.233 30.5438C104.233 31.0136 104.161 31.5801 104.018 32.2433C103.874 32.9066 103.788 33.4592 103.759 33.9014C103.759 35.0068 104.147 35.5594 104.923 35.5594C106.304 35.5594 107.425 33.9152 108.288 30.6267C108.345 30.4057 108.633 30.2951 109.15 30.2951H109.323C109.783 30.2951 110.013 30.4195 110.013 30.6682C110.013 30.8064 109.97 30.9998 109.883 31.2485C108.705 35.1449 107.008 37.0931 104.794 37.0931C103.5 37.0931 102.45 36.7339 101.645 36.0154C100.84 35.2969 100.438 34.2606 100.438 32.9066C100.438 32.4091 100.481 31.9808 100.567 31.6216C100.653 31.2623 100.696 30.9307 100.696 30.6267C100.696 30.0188 100.495 29.4937 100.093 29.0516C99.6901 28.6094 99.1868 28.2917 98.583 28.0982C97.9792 27.9048 97.4903 27.7528 97.1165 27.6423C96.7427 27.5317 96.4839 27.4903 96.3402 27.5179H96.2539C95.9089 28.6785 95.6069 29.7977 95.3481 30.8754C95.0894 31.9532 94.8881 32.7546 94.7443 33.2796C94.6005 33.8047 94.4711 34.3159 94.3561 34.8133C94.2411 35.3107 94.1405 35.6423 94.0542 35.8082C93.9679 35.974 93.8673 36.1536 93.7523 36.347C93.6373 36.5405 93.4791 36.6648 93.2778 36.7201C92.904 36.9688 92.5015 37.0931 92.0701 37.0931C91.5813 37.0931 91.2075 36.955 90.9487 36.6786C90.6899 36.4023 90.5605 36.1674 90.5605 35.974C90.5605 35.6976 91.0925 33.4869 92.1564 29.3418C93.2203 25.1966 94.2699 21.1206 95.305 17.1136L96.9009 11.1032C96.9296 10.7439 96.829 10.5229 96.599 10.44C96.3689 10.3571 95.8082 10.288 94.9168 10.2327H94.7012C94.4136 10.2327 94.2267 10.2327 94.1405 10.2327C94.0542 10.2327 93.9536 10.1913 93.8385 10.1084C93.7235 10.0255 93.6804 9.92874 93.7091 9.8182Z" fill="black"/>
<path d="M128.168 39.9533C128.168 39.0413 128.183 38.3505 128.211 37.8807C128.24 37.4109 128.269 37.1484 128.298 37.0931V36.9273L127.651 37.0931C126.328 37.3971 125.12 37.5491 124.028 37.5491C121.296 37.5491 118.924 36.7615 116.911 35.1864C114.898 33.6112 113.647 31.3176 113.158 28.3055C113.13 28.0844 113.115 27.4902 113.115 26.5231C113.115 23.7044 113.805 21.0238 115.186 18.4815C116.566 15.9392 118.42 13.687 120.75 11.7249C124.315 8.87863 127.895 7.45547 131.489 7.45547C132.582 7.45547 133.272 7.46928 133.56 7.49692C136.349 7.8838 138.592 9.07207 140.288 11.0617C141.985 13.0514 142.847 15.5661 142.876 18.6059C142.876 23.58 140.748 28.112 136.493 32.2019C134.681 33.8599 132.798 35.1173 130.842 35.9739L130.109 36.3056V36.5128C130.109 36.5404 130.181 36.9135 130.325 37.632C130.468 38.3505 130.77 38.9308 131.23 39.3729C131.691 39.8151 132.352 40.0362 133.215 40.0362C134.221 40.0362 135.184 39.7322 136.104 39.1242C137.024 38.5163 137.628 37.7287 137.916 36.7615C138.088 36.3746 138.275 36.1812 138.477 36.1812C138.735 36.1812 138.894 36.3056 138.951 36.5543C138.951 36.7753 138.807 37.2727 138.52 38.0465C138.232 38.8203 137.83 39.7322 137.312 40.7823C136.794 41.8324 136.018 42.7305 134.983 43.4766C133.948 44.2227 132.855 44.6234 131.705 44.6787C129.347 44.6787 128.168 43.2003 128.168 40.2434V39.9533ZM138.39 17.238C138.39 15.7181 138.175 14.3916 137.743 13.2586C137.312 12.1256 136.723 11.2828 135.975 10.7301C135.227 10.1774 134.508 9.76292 133.818 9.48658C133.128 9.21024 132.366 9.07207 131.532 9.07207C130.152 9.07207 128.743 9.41749 127.306 10.1083C124.373 11.4624 122.015 13.8942 120.232 17.4038C118.449 20.9133 117.558 24.34 117.558 27.6837C117.558 30.6129 118.334 32.7822 119.887 34.1915C120.577 34.7719 120.994 35.062 121.138 35.062V34.7304C121.138 33.625 121.612 32.6026 122.561 31.663C123.51 30.7234 124.631 30.2399 125.925 30.2122C126.644 30.2122 127.262 30.3642 127.78 30.6682C128.298 30.9722 128.686 31.3867 128.944 31.9117C129.203 32.4368 129.376 32.8789 129.462 33.2382C129.548 33.5974 129.635 33.9705 129.721 34.3573L130.282 33.9843C132.122 32.7684 133.689 31.0965 134.983 28.9687C136.277 26.8408 137.168 24.7821 137.657 22.7924C138.146 20.8028 138.39 18.9513 138.39 17.238ZM124.502 35.891C125.882 35.891 127.176 35.6009 128.384 35.0206L128.341 34.6061C128.226 33.0862 127.694 32.1742 126.745 31.8703C126.4 31.815 126.127 31.7874 125.925 31.7874C125.839 31.7874 125.753 31.7874 125.667 31.7874C125.58 31.7874 125.523 31.7735 125.494 31.7459C124.919 31.7459 124.329 32.0223 123.726 32.5749C123.122 33.1276 122.805 33.7632 122.777 34.4817C122.777 35.4213 123.352 35.891 124.502 35.891Z" fill="black"/>
<path d="M151.574 25.916L151.177 26.0625C150.893 26.1602 150.486 26.2579 149.957 26.3556C149.429 26.4532 148.839 26.5216 148.189 26.5607H147.609V25.2126H148.189C149.144 25.1735 150.029 25.027 150.842 24.773C151.655 24.519 152.224 24.2846 152.549 24.0697C152.875 23.8548 153.159 23.6399 153.403 23.4249C153.444 23.3663 153.566 23.337 153.769 23.337C153.952 23.337 154.125 23.3956 154.288 23.5129V32.2754L154.318 41.0672C154.46 41.204 154.582 41.2919 154.684 41.3309C154.786 41.37 155.03 41.4091 155.416 41.4482C155.802 41.4872 156.432 41.5068 157.306 41.5068H158.099V42.8549H157.764C157.337 42.7962 155.721 42.7669 152.915 42.7669C150.151 42.7669 148.555 42.7962 148.128 42.8549H147.762V41.5068H148.555C149.002 41.5068 149.388 41.5068 149.713 41.5068C150.039 41.5068 150.293 41.497 150.476 41.4775C150.659 41.4579 150.821 41.4286 150.964 41.3896C151.106 41.3505 151.187 41.3309 151.208 41.3309C151.228 41.3309 151.289 41.2821 151.391 41.1844C151.492 41.0867 151.553 41.0477 151.574 41.0672V25.916Z" fill="black"/>
<path d="M179.69 39.9533C179.69 39.0414 179.704 38.3505 179.733 37.8808C179.762 37.411 179.79 37.1485 179.819 37.0932V36.9274L179.172 37.0932C177.849 37.3972 176.642 37.5492 175.549 37.5492C172.817 37.5492 170.445 36.7616 168.432 35.1864C166.419 33.6113 165.169 31.3176 164.68 28.3055C164.651 28.0844 164.637 27.4903 164.637 26.5231C164.637 23.7044 165.327 21.0239 166.707 18.4816C168.087 15.9392 169.942 13.687 172.271 11.725C175.837 8.87869 179.416 7.45553 183.011 7.45553C184.103 7.45553 184.794 7.46935 185.081 7.49698C187.87 7.88386 190.113 9.07213 191.81 11.0618C193.506 13.0514 194.369 15.5662 194.397 18.6059C194.397 23.5801 192.27 28.1121 188.014 32.2019C186.202 33.86 184.319 35.1173 182.364 35.974L181.631 36.3056V36.5129C181.631 36.5405 181.702 36.9136 181.846 37.6321C181.99 38.3505 182.292 38.9309 182.752 39.373C183.212 39.8152 183.873 40.0362 184.736 40.0362C185.742 40.0362 186.706 39.7323 187.626 39.1243C188.546 38.5163 189.15 37.7288 189.437 36.7616C189.61 36.3747 189.797 36.1813 189.998 36.1813C190.257 36.1813 190.415 36.3056 190.472 36.5543C190.472 36.7754 190.329 37.2728 190.041 38.0466C189.754 38.8203 189.351 39.7323 188.833 40.7824C188.316 41.8325 187.54 42.7306 186.504 43.4767C185.469 44.2228 184.377 44.6235 183.226 44.6788C180.869 44.6788 179.69 43.2003 179.69 40.2435V39.9533ZM189.912 17.238C189.912 15.7181 189.696 14.3917 189.265 13.2587C188.833 12.1257 188.244 11.2829 187.496 10.7302C186.749 10.1775 186.03 9.76298 185.34 9.48664C184.65 9.2103 183.888 9.07213 183.054 9.07213C181.674 9.07213 180.265 9.41755 178.827 10.1084C175.894 11.4625 173.536 13.8943 171.753 17.4038C169.971 20.9134 169.079 24.34 169.079 27.6837C169.079 30.613 169.856 32.7823 171.408 34.1916C172.098 34.7719 172.515 35.0621 172.659 35.0621V34.7305C172.659 33.6251 173.134 32.6026 174.083 31.6631C175.031 30.7235 176.153 30.2399 177.447 30.2123C178.166 30.2123 178.784 30.3643 179.301 30.6682C179.819 30.9722 180.207 31.3867 180.466 31.9118C180.725 32.4368 180.897 32.879 180.984 33.2382C181.07 33.5975 181.156 33.9705 181.242 34.3574L181.803 33.9843C183.643 32.7684 185.21 31.0966 186.504 28.9687C187.798 26.8409 188.69 24.7822 189.179 22.7925C189.667 20.8028 189.912 18.9513 189.912 17.238ZM176.023 35.8911C177.404 35.8911 178.698 35.6009 179.905 35.0206L179.862 34.6061C179.747 33.0862 179.215 32.1743 178.266 31.8703C177.921 31.8151 177.648 31.7874 177.447 31.7874C177.361 31.7874 177.274 31.7874 177.188 31.7874C177.102 31.7874 177.044 31.7736 177.015 31.746C176.44 31.746 175.851 32.0223 175.247 32.575C174.643 33.1277 174.327 33.7633 174.298 34.4818C174.298 35.4213 174.873 35.8911 176.023 35.8911Z" fill="black"/>
<path d="M199.922 30.2826C199.373 30.2826 198.936 30.1067 198.611 29.7551C198.286 29.4034 198.123 28.9736 198.123 28.4656C198.123 27.0784 198.662 25.8769 199.739 24.8609C200.817 23.845 202.158 23.337 203.764 23.337C205.614 23.337 207.159 23.8841 208.4 24.9782C209.64 26.0723 210.27 27.4887 210.29 29.2275C210.29 30.0677 210.087 30.8687 209.68 31.6306C209.274 32.3926 208.786 33.0569 208.217 33.6235C207.647 34.19 206.834 34.9129 205.777 35.7921C205.045 36.3978 204.029 37.2965 202.728 38.4883L200.928 40.1294L203.246 40.1587C206.438 40.1587 208.135 40.1099 208.339 40.0122C208.481 39.9731 208.725 39.1037 209.07 37.4039V37.316H210.29V37.4039C210.27 37.4625 210.138 38.3515 209.894 40.0708C209.65 41.7901 209.497 42.6888 209.436 42.7669V42.8549H198.123V42.298V41.9464C198.123 41.8096 198.184 41.6631 198.306 41.5068C198.428 41.3505 198.733 41.0086 199.221 40.4811C199.81 39.8559 200.319 39.3088 200.746 38.8399C200.928 38.6446 201.274 38.2831 201.782 37.7556C202.291 37.2281 202.636 36.8667 202.819 36.6713C203.002 36.4759 203.297 36.1535 203.703 35.7042C204.11 35.2548 204.395 34.9227 204.557 34.7078C204.72 34.4929 204.954 34.1998 205.259 33.8286C205.564 33.4574 205.777 33.1448 205.899 32.8908C206.021 32.6368 206.173 32.3535 206.356 32.0409C206.539 31.7283 206.672 31.4157 206.753 31.1031C206.834 30.7905 206.905 30.4975 206.966 30.224C207.027 29.9504 207.058 29.6281 207.058 29.2569C207.058 28.026 206.712 26.9612 206.021 26.0625C205.33 25.1638 204.344 24.7144 203.063 24.7144C202.392 24.7144 201.803 24.8805 201.294 25.2126C200.786 25.5448 200.43 25.8671 200.227 26.1797C200.024 26.4923 199.922 26.6779 199.922 26.7365C199.922 26.7561 199.973 26.7658 200.075 26.7658C200.441 26.7658 200.817 26.9026 201.203 27.1761C201.589 27.4496 201.782 27.899 201.782 28.5242C201.782 29.0126 201.62 29.4229 201.294 29.7551C200.969 30.0872 200.512 30.263 199.922 30.2826Z" fill="black"/>
<path d="M232.249 5.54873C232.508 5.54873 232.724 5.63163 232.896 5.79744C233.069 5.96324 233.155 6.15668 233.155 6.37775C233.155 6.51593 230.668 13.1758 225.693 26.3573C220.719 39.5388 218.145 46.2815 217.973 46.5855C217.771 46.8618 217.527 47 217.239 47C217.038 47 216.851 46.9309 216.679 46.7927C216.506 46.6546 216.42 46.4611 216.42 46.2124C216.42 45.9361 218.922 39.1933 223.925 25.9842C228.928 12.7751 231.473 6.10141 231.559 5.96324C231.674 5.6869 231.904 5.54873 232.249 5.54873Z" fill="black"/>
<path d="M245.491 10.2327C244.715 10.2327 244.255 10.2189 244.111 10.1912C243.967 10.1636 243.895 10.0116 243.895 9.73528C243.895 8.98916 244.053 8.53319 244.37 8.36739C244.427 8.33975 246.929 8.32594 251.875 8.32594C256.82 8.35357 259.494 8.39502 259.897 8.45029C261.507 8.67136 262.859 9.05824 263.951 9.61093C265.044 10.1636 265.82 10.7992 266.28 11.5177C266.741 12.2362 267.042 12.8303 267.186 13.3001C267.33 13.7699 267.416 14.2397 267.445 14.7094C267.445 15.953 267.028 17.1136 266.194 18.1913C265.36 19.2691 264.397 20.0981 263.304 20.6784C262.212 21.2587 261.248 21.7285 260.415 22.0878C259.581 22.447 259.034 22.6266 258.776 22.6266L259.077 22.8339C261.004 23.884 261.967 25.4039 261.967 27.3935C261.967 27.6975 261.895 28.5403 261.752 29.922C261.608 31.3038 261.536 32.4368 261.536 33.3211V33.6941C261.536 34.1915 261.55 34.5784 261.579 34.8547C261.608 35.1311 261.766 35.3798 262.054 35.6009C262.341 35.8219 262.715 35.9463 263.175 35.9739C263.98 35.9739 264.641 35.67 265.159 35.062C265.677 34.4541 266.05 33.8046 266.28 33.1138C266.424 32.7269 266.539 32.492 266.625 32.4091C266.712 32.3262 266.927 32.2848 267.272 32.2848C267.848 32.2848 268.135 32.4506 268.135 32.7822C268.135 33.2796 267.79 34.0672 267.1 35.1449C266.007 36.7201 264.713 37.5076 263.218 37.5076H262.83C261.076 37.5076 259.624 37.1622 258.474 36.4713C257.323 35.7805 256.691 34.7028 256.576 33.2381C256.576 32.492 256.792 31.3314 257.223 29.7562C257.654 28.1811 257.87 27.1724 257.87 26.7303C257.87 25.321 257.252 24.2985 256.015 23.6629C255.584 23.4695 255.224 23.3589 254.937 23.3313C254.649 23.3037 253.629 23.276 251.875 23.2484H248.898L247.518 28.6371C246.569 32.2848 246.095 34.1363 246.095 34.1915C246.095 34.3021 246.109 34.3712 246.138 34.3988C246.167 34.4264 246.267 34.4817 246.44 34.5646C246.612 34.6475 246.857 34.6751 247.173 34.6475C247.489 34.6199 247.964 34.6475 248.597 34.7304H249.934C250.106 34.9515 250.192 35.0758 250.192 35.1035C250.192 35.1311 250.149 35.3798 250.063 35.8496C249.948 36.2088 249.804 36.4713 249.632 36.6372H248.985C247.95 36.5819 246.066 36.5543 243.334 36.5543C242.357 36.5543 241.451 36.5543 240.617 36.5543C239.783 36.5543 239.122 36.5543 238.633 36.5543C238.144 36.5543 237.842 36.5681 237.727 36.5957C237.239 36.5957 236.994 36.4713 236.994 36.2226C236.994 36.1674 237.037 35.9739 237.124 35.6423C237.267 35.1173 237.411 34.8271 237.555 34.7718C237.67 34.7442 237.886 34.7304 238.202 34.7304H238.461C239.237 34.7304 240.1 34.6889 241.049 34.606C241.451 34.5231 241.724 34.3573 241.868 34.1086C241.954 33.9981 242.989 30.1569 244.973 22.5852C246.958 15.0134 247.95 11.0203 247.95 10.6058C247.95 10.4123 247.13 10.288 245.491 10.2327ZM262.744 13.6732C262.744 12.7889 262.442 12.0427 261.838 11.4348C261.234 10.8268 259.998 10.44 258.129 10.2741C258.071 10.2741 257.74 10.2741 257.137 10.2741C256.533 10.2741 255.986 10.2603 255.498 10.2327H254.549C253.197 10.2327 252.421 10.3709 252.22 10.6472C252.191 10.7301 251.702 12.5678 250.753 16.1602C249.804 19.7527 249.33 21.5903 249.33 21.6732C249.33 21.7009 250.322 21.7147 252.306 21.7147C254.549 21.6871 256.044 21.5903 256.792 21.4245C258.632 21.1482 260.069 20.333 261.105 18.9789C261.565 18.3433 261.953 17.5143 262.269 16.4918C262.586 15.4694 262.744 14.5298 262.744 13.6732Z" fill="black"/>
<path d="M271.629 6.94553C271.08 6.94553 270.643 6.76969 270.318 6.41802C269.993 6.06635 269.83 5.63652 269.83 5.12855C269.83 3.7414 270.369 2.53985 271.446 1.52391C272.524 0.507965 273.865 -5.72205e-06 275.471 -5.72205e-06C277.321 -5.72205e-06 278.866 0.547041 280.107 1.64113C281.347 2.73523 281.977 4.15168 281.997 5.89051C281.997 6.73062 281.794 7.53165 281.387 8.29361C280.981 9.05556 280.493 9.71983 279.924 10.2864C279.354 10.853 278.541 11.5759 277.484 12.4551C276.752 13.0607 275.736 13.9594 274.435 15.1512L272.636 16.7924L274.953 16.8217C278.145 16.8217 279.842 16.7728 280.046 16.6751C280.188 16.6361 280.432 15.7666 280.777 14.0669V13.979H281.997V14.0669C281.977 14.1255 281.845 15.0145 281.601 16.7337C281.357 18.453 281.204 19.3518 281.143 19.4299V19.5178H269.83V18.961V18.6093C269.83 18.4726 269.891 18.326 270.013 18.1697C270.135 18.0134 270.44 17.6715 270.928 17.144C271.517 16.5188 272.026 15.9718 272.453 15.5029C272.636 15.3075 272.981 14.9461 273.489 14.4186C273.998 13.8911 274.343 13.5296 274.526 13.3342C274.709 13.1389 275.004 12.8165 275.41 12.3671C275.817 11.9178 276.102 11.5857 276.264 11.3707C276.427 11.1558 276.661 10.8628 276.966 10.4916C277.271 10.1203 277.484 9.80775 277.606 9.55377C277.728 9.29978 277.88 9.01649 278.063 8.70389C278.246 8.39129 278.379 8.07869 278.46 7.7661C278.541 7.4535 278.612 7.16044 278.673 6.88692C278.734 6.61339 278.765 6.29103 278.765 5.91982C278.765 4.68896 278.419 3.62418 277.728 2.72546C277.037 1.82674 276.051 1.37738 274.77 1.37738C274.099 1.37738 273.51 1.54345 273.001 1.87558C272.493 2.20772 272.137 2.53008 271.934 2.84268C271.731 3.15528 271.629 3.34088 271.629 3.3995C271.629 3.41903 271.68 3.4288 271.782 3.4288C272.148 3.4288 272.524 3.56556 272.91 3.83909C273.296 4.11261 273.489 4.56197 273.489 5.18716C273.489 5.6756 273.327 6.08588 273.001 6.41802C272.676 6.75015 272.219 6.92599 271.629 6.94553Z" fill="black"/>
</svg>
