<svg width="49" height="48" viewBox="0 0 49 48" fill="none" xmlns="http://www.w3.org/2000/svg">
<g clip-path="url(#clip0_31_813)">
<path d="M17.6536 2.66663C15.162 2.66663 13.0953 4.37496 12.5036 6.68329C12.437 6.68329 12.387 6.66663 12.3203 6.66663C9.37865 6.66663 6.98698 9.05829 6.98698 12C6.98698 12.4 7.03698 12.7916 7.12865 13.1666C4.69531 14.1666 2.98698 16.55 2.98698 19.3333C2.98698 20.3833 3.25365 21.3583 3.67865 22.2416C1.67865 23.3916 0.320312 25.525 0.320312 28C0.320312 30.775 2.02031 33.1583 4.43698 34.1583C4.36198 34.5416 4.32031 34.9333 4.32031 35.3333C4.32031 38.65 7.00365 41.3333 10.3203 41.3333C10.662 41.3333 10.9953 41.2916 11.3203 41.2333C12.1203 43.6083 14.337 45.3333 16.987 45.3333C20.3036 45.3333 22.987 42.65 22.987 39.3333V7.99996C22.987 5.05829 20.5953 2.66663 17.6536 2.66663ZM48.3203 28C48.3203 25.525 46.962 23.3916 44.962 22.2416C45.3953 21.3583 45.6536 20.3833 45.6536 19.3333C45.6536 16.55 43.9453 14.1666 41.512 13.1666C41.5953 12.7916 41.6536 12.4 41.6536 12C41.6536 9.05829 39.262 6.66663 36.3203 6.66663C36.2536 6.66663 36.1953 6.68329 36.137 6.68329C35.5453 4.37496 33.4786 2.66663 30.987 2.66663C28.0453 2.66663 25.6536 5.04996 25.6536 7.99996V39.3333C25.6536 42.65 28.337 45.3333 31.6536 45.3333C34.3036 45.3333 36.5203 43.6083 37.3203 41.2333C37.6453 41.2916 37.9786 41.3333 38.3203 41.3333C41.637 41.3333 44.3203 38.65 44.3203 35.3333C44.3203 34.9333 44.2786 34.5416 44.2036 34.1583C46.6203 33.1583 48.3203 30.775 48.3203 28Z" fill="#1E40AF"/>
</g>
<defs>
<clipPath id="clip0_31_813">
<rect width="48" height="48" fill="white" transform="translate(0.320312)"/>
</clipPath>
</defs>
</svg>
