<svg width="49" height="48" viewBox="0 0 49 48" fill="none" xmlns="http://www.w3.org/2000/svg">
<g clip-path="url(#clip0_31_805)">
<path d="M19.9969 24.4238C20.4656 24.8925 21.2254 24.8925 21.6941 24.4238L22.5424 23.5755C23.0111 23.1068 23.0111 22.3471 22.5424 21.8783L19.8634 19.2L22.5416 16.521C23.0104 16.0523 23.0104 15.2925 22.5416 14.8238L21.6934 13.9755C21.2246 13.5068 20.4649 13.5068 19.9961 13.9755L15.6206 18.351C15.1519 18.8198 15.1519 19.5795 15.6206 20.0483L19.9969 24.4238ZM27.1976 23.5763L28.0459 24.4245C28.5146 24.8933 29.2744 24.8933 29.7431 24.4245L34.1186 20.049C34.5874 19.5803 34.5874 18.8205 34.1186 18.3518L29.7431 13.9763C29.2744 13.5075 28.5146 13.5075 28.0459 13.9763L27.1976 14.8245C26.7289 15.2933 26.7289 16.053 27.1976 16.5218L29.8759 19.2L27.1976 21.879C26.7289 22.3478 26.7289 23.1076 27.1976 23.5763ZM47.6696 36.0001H29.4851C29.4296 37.4858 28.3819 38.4001 27.0296 38.4001H22.4696C21.0679 38.4001 19.9931 37.0898 20.0119 36.0001H2.06963C1.40963 36.0001 0.869629 36.5401 0.869629 37.2001V38.4001C0.869629 41.0401 3.02963 43.2001 5.66963 43.2001H44.0696C46.7096 43.2001 48.8696 41.0401 48.8696 38.4001V37.2001C48.8696 36.5401 48.3296 36.0001 47.6696 36.0001ZM44.0696 8.40005C44.0696 6.42005 42.4496 4.80005 40.4696 4.80005H9.26963C7.28963 4.80005 5.66963 6.42005 5.66963 8.40005V33.6H44.0696V8.40005ZM39.2696 28.8H10.4696V9.60005H39.2696V28.8Z" fill="#1E40AF"/>
</g>
<defs>
<clipPath id="clip0_31_805">
<rect width="48" height="48" fill="white" transform="translate(0.869629)"/>
</clipPath>
</defs>
</svg>
