<svg width="49" height="48" viewBox="0 0 49 48" fill="none" xmlns="http://www.w3.org/2000/svg">
<g clip-path="url(#clip0_31_797)">
<path d="M16.1577 31.2001C15.9785 31.2001 15.7992 31.2263 15.6282 31.2818C14.6562 31.5975 13.634 31.8001 12.5577 31.8001C11.4815 31.8001 10.4592 31.5975 9.48649 31.2818C9.31549 31.2263 9.13699 31.2001 8.95774 31.2001C4.30324 31.2001 0.532988 34.986 0.557738 39.6465C0.568238 41.6161 2.18749 43.2001 4.15774 43.2001H20.9577C22.928 43.2001 24.5472 41.6161 24.5577 39.6465C24.5825 34.986 20.8122 31.2001 16.1577 31.2001ZM12.5577 28.8C16.5342 28.8 19.7577 25.5765 19.7577 21.6C19.7577 17.6235 16.5342 14.4 12.5577 14.4C8.58124 14.4 5.35774 17.6235 5.35774 21.6C5.35774 25.5765 8.58124 28.8 12.5577 28.8ZM44.9577 4.80005H16.1577C14.1725 4.80005 12.5577 6.4688 12.5577 8.5193V12C14.3142 12 15.9402 12.5085 17.3577 13.335V9.60005H43.7577V31.2001H38.9577V26.4H29.3577V31.2001H23.6397C25.0722 32.4518 26.1237 34.1048 26.6165 36H44.9577C46.943 36 48.5577 34.3313 48.5577 32.2808V8.5193C48.5577 6.4688 46.943 4.80005 44.9577 4.80005Z" fill="#1E40AF"/>
</g>
<defs>
<clipPath id="clip0_31_797">
<rect width="48" height="48" fill="white" transform="translate(0.557617)"/>
</clipPath>
</defs>
</svg>
