<svg width="353" height="51" viewBox="0 0 353 51" fill="none" xmlns="http://www.w3.org/2000/svg">
<path d="M12.4945 36.605C11.9089 36.5074 9.76136 36.4586 6.05205 36.4586C2.60303 36.4586 0.732102 36.5074 0.439261 36.605H0V33.579H2.53795C4.22992 33.579 5.07591 33.5464 5.07591 33.4813C13.0152 13.3729 17.1312 3.20485 17.424 2.97709C17.6193 2.68425 18.2212 2.53783 19.2299 2.53783C20.1735 2.53783 20.7754 2.68425 21.0357 2.97709C21.1659 3.0747 22.2559 5.66146 24.3058 10.7374C26.3557 15.8133 28.3893 20.8892 30.4066 25.9651L33.3839 33.4813C33.3839 33.5464 34.2298 33.579 35.9218 33.579H38.4598V36.605H37.9229C37.2396 36.5074 34.6528 36.4586 30.1626 36.4586C25.3145 36.4586 22.4999 36.5074 21.719 36.605H21.0845V33.579H23.2809C24.7125 33.579 25.4284 33.5627 25.4284 33.5302L23.2809 28.0638H10.8351L9.76136 30.7482C9.04553 32.5377 8.67134 33.4488 8.63881 33.4813C8.63881 33.5464 9.35464 33.579 10.7863 33.579H12.9826V36.605H12.4945ZM17.0824 25.0378L22.0607 24.989L19.5227 18.7905C17.8958 14.6907 17.0498 12.6408 16.9848 12.6408C13.6984 20.8404 12.0553 24.9727 12.0553 25.0378H17.0824Z" fill="black"/>
<path d="M56.752 19.6689C56.752 19.2459 56.9797 18.9205 57.4352 18.6927H88.5252C89.0133 18.953 89.2573 19.2784 89.2573 19.6689C89.2573 20.0268 89.0295 20.3359 88.574 20.5962L73.0534 20.645H57.5329C57.0123 20.4823 56.752 20.1569 56.752 19.6689ZM56.752 29.1374C56.752 28.6493 57.0123 28.3239 57.5329 28.1613H88.574C89.0295 28.4866 89.2573 28.812 89.2573 29.1374C89.2573 29.5604 89.0133 29.8858 88.5252 30.1135H57.4352C56.9797 29.8858 56.752 29.5604 56.752 29.1374Z" fill="black"/>
<path d="M110.138 24.4032C110.138 22.1581 110.3 20.0269 110.626 18.0095C110.951 15.9922 111.325 14.2514 111.748 12.7872C112.171 11.323 112.773 9.89134 113.554 8.49221C114.335 7.09309 114.953 6.00307 115.409 5.22216C115.864 4.44125 116.548 3.59526 117.459 2.6842C118.37 1.77314 118.907 1.22 119.069 1.02477C119.232 0.829544 119.639 0.487896 120.29 -0.000171661H120.924H121.119C121.575 -0.000171661 121.803 0.146248 121.803 0.439091C121.803 0.536701 121.526 0.878349 120.973 1.46403C120.42 2.04971 119.753 2.91197 118.972 4.05079C118.191 5.18962 117.394 6.58875 116.58 8.24818C115.767 9.90761 115.083 12.1527 114.53 14.9835C113.977 17.8143 113.701 20.9542 113.701 24.4032C113.701 27.8522 113.977 30.9759 114.53 33.7741C115.083 36.5724 115.75 38.8338 116.531 40.5583C117.312 42.2828 118.109 43.6819 118.923 44.7557C119.736 45.8294 120.42 46.6917 120.973 47.3424C121.526 47.9932 121.803 48.3348 121.803 48.3674C121.803 48.6602 121.558 48.8066 121.07 48.8066H120.924H120.29L118.923 47.6353C115.864 44.8696 113.636 41.4205 112.236 37.2882C110.837 33.1559 110.138 28.8609 110.138 24.4032Z" fill="black"/>
<path d="M134.689 32.9933C134.689 33.7742 135.437 34.2297 136.934 34.3599C137.519 34.3599 137.812 34.5388 137.812 34.8967C137.812 34.9293 137.78 35.1408 137.715 35.5312C137.617 35.9868 137.519 36.2796 137.422 36.4098C137.324 36.5399 137.113 36.605 136.787 36.605C136.722 36.605 136.527 36.605 136.202 36.605C135.876 36.605 135.323 36.5887 134.542 36.5562C133.761 36.5236 132.72 36.5074 131.419 36.5074C129.108 36.5074 127.628 36.5399 126.977 36.605H126.587C126.359 36.3772 126.245 36.1983 126.245 36.0681C126.31 35.1896 126.522 34.6202 126.88 34.3599H127.563C129.841 34.2623 131.5 33.4488 132.541 31.9195C132.736 31.7243 135.681 26.7623 141.375 17.0334C147.069 7.30463 149.965 2.37514 150.063 2.24499C150.291 1.85453 150.681 1.65931 151.234 1.65931H151.625H152.454C152.65 1.95214 152.747 2.11483 152.747 2.14737L154.114 17.912C155.025 28.4217 155.513 33.7254 155.578 33.823C155.741 34.1809 156.798 34.3599 158.75 34.3599C159.564 34.3599 159.971 34.5226 159.971 34.8479C159.971 34.913 159.922 35.1408 159.824 35.5312C159.727 36.0193 159.645 36.3121 159.58 36.4098C159.515 36.5074 159.287 36.5724 158.897 36.605C158.799 36.605 158.571 36.605 158.214 36.605C157.856 36.605 157.221 36.5887 156.31 36.5562C155.399 36.5236 154.211 36.5074 152.747 36.5074C149.689 36.5074 147.688 36.5399 146.744 36.605H146.158C145.963 36.4098 145.865 36.2633 145.865 36.1657C145.865 36.0681 145.898 35.7753 145.963 35.2872C146.093 34.8642 146.191 34.6039 146.256 34.5063L146.451 34.3599H147.427C149.184 34.2623 150.226 33.9857 150.551 33.5302L149.965 26.2091H138.349L136.69 29.0399C135.356 31.285 134.689 32.6028 134.689 32.9933ZM149.721 23.9152C149.721 23.5573 149.526 21.0193 149.136 16.3013C148.745 11.5834 148.517 9.20809 148.452 9.17555L147.134 11.2742C146.614 12.1528 145.589 13.8935 144.06 16.4966L139.667 23.9152L144.694 23.964C148.045 23.964 149.721 23.9477 149.721 23.9152Z" fill="black"/>
<path d="M162.936 33.9537C163.097 32.9876 163.718 31.8719 164.8 30.6066C165.881 29.3414 167.215 28.6973 168.802 28.6743C169.607 28.6743 170.344 28.8813 171.011 29.2954C171.678 29.7095 172.172 30.227 172.494 30.8482C173.461 29.3989 174.622 28.6743 175.98 28.6743C176.831 28.6743 177.567 28.9273 178.188 29.4334C178.809 29.9395 179.131 30.6181 179.154 31.4693C179.154 32.1364 178.993 32.677 178.671 33.0911C178.349 33.5052 178.039 33.7582 177.739 33.8502C177.44 33.9422 177.176 33.9882 176.946 33.9882C176.509 33.9882 176.152 33.8617 175.876 33.6087C175.6 33.3556 175.462 33.0221 175.462 32.608C175.462 31.5498 176.037 30.8252 177.187 30.4341C176.934 30.135 176.474 29.9855 175.807 29.9855C175.508 29.9855 175.29 30.0085 175.151 30.0545C174.277 30.4226 173.633 31.1817 173.219 32.3319C171.839 37.4159 171.149 40.3834 171.149 41.2346C171.149 41.8787 171.333 42.3388 171.701 42.6148C172.069 42.8909 172.471 43.0289 172.909 43.0289C173.76 43.0289 174.599 42.6494 175.428 41.8902C176.256 41.1311 176.819 40.1994 177.118 39.0952C177.187 38.8652 177.256 38.7386 177.325 38.7156C177.394 38.6926 177.578 38.6696 177.877 38.6466H178.016C178.361 38.6466 178.533 38.7386 178.533 38.9227C178.533 38.9457 178.51 39.0722 178.464 39.3022C178.096 40.6135 177.383 41.7752 176.325 42.7874C175.267 43.7996 174.036 44.3057 172.633 44.3057C171.022 44.3057 169.803 43.581 168.975 42.1318C168.032 43.558 166.95 44.2712 165.731 44.2712H165.524C164.397 44.2712 163.592 43.9721 163.109 43.374C162.626 42.7759 162.373 42.1433 162.35 41.4761C162.35 40.74 162.568 40.1419 163.005 39.6818C163.442 39.2217 163.96 38.9917 164.558 38.9917C165.547 38.9917 166.042 39.4748 166.042 40.4409C166.042 40.901 165.904 41.3036 165.628 41.6487C165.352 41.9937 165.087 42.2238 164.834 42.3388C164.581 42.4538 164.431 42.5113 164.385 42.5113L164.282 42.5458C164.282 42.5688 164.351 42.6148 164.489 42.6839C164.627 42.7529 164.811 42.8334 165.041 42.9254C165.271 43.0174 165.49 43.0519 165.697 43.0289C166.525 43.0289 167.238 42.5113 167.836 41.4761C168.043 41.1081 168.308 40.3259 168.63 39.1297C168.952 37.9335 169.274 36.6912 169.596 35.403C169.918 34.1148 170.102 33.3556 170.148 33.1256C170.263 32.5045 170.321 32.0559 170.321 31.7798C170.321 31.1357 170.148 30.6756 169.803 30.3996C169.458 30.1235 169.067 29.9855 168.63 29.9855C167.71 29.9855 166.847 30.3536 166.042 31.0897C165.237 31.8258 164.673 32.769 164.351 33.9192C164.305 34.1263 164.247 34.2413 164.178 34.2643C164.109 34.2873 163.925 34.3103 163.626 34.3333H163.143C163.005 34.1953 162.936 34.0688 162.936 33.9537Z" fill="black"/>
<path d="M187.125 34.8964C187.125 34.8964 187.125 34.4897 187.125 33.6763C187.125 32.8628 187.385 32.1633 187.906 31.5776C188.427 30.9919 189.126 30.6991 190.005 30.6991C190.916 30.6991 191.729 31.1058 192.445 31.9192C193.161 32.7327 193.535 34.1643 193.567 36.2142C193.567 37.353 193.421 38.4593 193.128 39.5331C192.835 40.6068 192.494 41.5342 192.103 42.3151C191.713 43.096 191.29 43.763 190.834 44.3162C190.379 44.8693 189.988 45.3086 189.663 45.6339C189.338 45.9593 189.126 46.1057 189.028 46.0732C188.898 46.0732 188.687 45.9268 188.394 45.6339C188.101 45.3411 187.955 45.1296 187.955 44.9994C187.955 44.8693 188.134 44.609 188.492 44.2185C188.85 43.8281 189.256 43.34 189.712 42.7543C190.167 42.1687 190.59 41.3552 190.981 40.314C191.371 39.2728 191.631 38.0852 191.762 36.7511V36.1654L191.713 36.2142C191.648 36.2468 191.566 36.2793 191.469 36.3118C191.371 36.3444 191.274 36.3932 191.176 36.4583C191.078 36.5233 190.932 36.5559 190.737 36.5559C190.541 36.5559 190.346 36.5721 190.151 36.6047C189.273 36.6047 188.557 36.3281 188.004 35.775L187.125 34.8964Z" fill="black"/>
<path d="M215.174 32.9933C215.174 33.7742 215.922 34.2297 217.419 34.3599C218.005 34.3599 218.298 34.5388 218.298 34.8967C218.298 34.9293 218.265 35.1408 218.2 35.5312C218.102 35.9868 218.005 36.2796 217.907 36.4098C217.81 36.5399 217.598 36.605 217.273 36.605C217.208 36.605 217.012 36.605 216.687 36.605C216.362 36.605 215.809 36.5887 215.028 36.5562C214.247 36.5236 213.206 36.5074 211.904 36.5074C209.594 36.5074 208.113 36.5399 207.463 36.605H207.072C206.844 36.3772 206.73 36.1983 206.73 36.0681C206.796 35.1896 207.007 34.6202 207.365 34.3599H208.048C210.326 34.2623 211.985 33.4488 213.027 31.9195C213.222 31.7243 216.166 26.7623 221.861 17.0334C227.555 7.30463 230.451 2.37514 230.548 2.24499C230.776 1.85453 231.166 1.65931 231.72 1.65931H232.11H232.94C233.135 1.95214 233.233 2.11483 233.233 2.14737L234.599 17.912C235.51 28.4217 235.998 33.7254 236.063 33.823C236.226 34.1809 237.284 34.3599 239.236 34.3599C240.049 34.3599 240.456 34.5226 240.456 34.8479C240.456 34.913 240.407 35.1408 240.31 35.5312C240.212 36.0193 240.131 36.3121 240.066 36.4098C240 36.5074 239.773 36.5724 239.382 36.605C239.285 36.605 239.057 36.605 238.699 36.605C238.341 36.605 237.707 36.5887 236.795 36.5562C235.884 36.5236 234.697 36.5074 233.233 36.5074C230.174 36.5074 228.173 36.5399 227.229 36.605H226.644C226.448 36.4098 226.351 36.2633 226.351 36.1657C226.351 36.0681 226.383 35.7753 226.448 35.2872C226.579 34.8642 226.676 34.6039 226.741 34.5063L226.936 34.3599H227.913C229.67 34.2623 230.711 33.9857 231.036 33.5302L230.451 26.2091H218.835L217.175 29.0399C215.841 31.285 215.174 32.6028 215.174 32.9933ZM230.207 23.9152C230.207 23.5573 230.011 21.0193 229.621 16.3013C229.23 11.5834 229.003 9.20809 228.938 9.17555L227.62 11.2742C227.099 12.1528 226.074 13.8935 224.545 16.4966L220.152 23.9152L225.179 23.964C228.531 23.964 230.207 23.9477 230.207 23.9152Z" fill="black"/>
<path d="M242.353 34.0226C242.353 33.7005 242.525 33.1484 242.87 32.3663C243.215 31.5841 243.767 30.7675 244.526 29.9163C245.286 29.0652 246.137 28.6511 247.08 28.6741C248.023 28.6741 248.782 28.9387 249.357 29.4678C249.932 29.9968 250.232 30.733 250.255 31.6762C250.208 32.1132 250.174 32.3548 250.151 32.4008C250.151 32.4698 249.967 32.9989 249.599 33.9881C249.231 34.9773 248.851 36.093 248.46 37.3352C248.069 38.5774 247.885 39.5666 247.908 40.3028C247.908 41.292 248.069 41.9821 248.391 42.3732C248.713 42.7642 249.196 42.9713 249.84 42.9943C250.37 42.9943 250.864 42.8677 251.324 42.6147C251.784 42.3616 252.141 42.0971 252.394 41.821C252.647 41.545 252.958 41.1654 253.326 40.6823C253.326 40.6593 253.383 40.4293 253.498 39.9922C253.613 39.5551 253.774 38.8765 253.981 37.9563C254.188 37.0362 254.407 36.185 254.637 35.4029C255.511 31.9522 255.994 30.1464 256.086 29.9853C256.385 29.3642 256.88 29.0537 257.57 29.0537C257.869 29.0537 258.11 29.1342 258.295 29.2952C258.479 29.4562 258.605 29.5943 258.674 29.7093C258.743 29.8243 258.766 29.9278 258.743 30.0199C258.743 30.3189 258.179 32.7344 257.052 37.2662C255.925 41.798 255.281 44.2825 255.12 44.7196C254.476 46.6289 253.36 48.1472 251.773 49.2744C250.185 50.4016 248.598 50.9768 247.011 50.9998C245.976 50.9998 245.067 50.7467 244.285 50.2406C243.503 49.7345 243.112 48.9754 243.112 47.9632C243.112 47.4571 243.192 47.0315 243.353 46.6865C243.514 46.3414 243.733 46.0883 244.009 45.9273C244.285 45.7663 244.515 45.6513 244.699 45.5822C244.883 45.5132 245.079 45.4787 245.286 45.4787C246.298 45.4787 246.804 45.9618 246.804 46.928C246.804 47.3881 246.666 47.7907 246.39 48.1357C246.114 48.4808 245.849 48.7108 245.596 48.8259C245.343 48.9409 245.194 48.9984 245.148 48.9984L245.044 49.0329C245.09 49.1479 245.309 49.2859 245.7 49.447C246.091 49.608 246.482 49.6885 246.873 49.6885H247.149C247.54 49.6885 247.839 49.6655 248.046 49.6195C248.805 49.4125 249.507 48.9754 250.151 48.3083C250.795 47.6411 251.29 46.928 251.635 46.1689C251.98 45.4097 252.244 44.7656 252.428 44.2365C252.612 43.7074 252.704 43.3623 252.704 43.2013L252.497 43.3393C252.359 43.4313 252.141 43.5579 251.842 43.7189C251.543 43.8799 251.244 44.018 250.945 44.133C250.485 44.248 250.036 44.3055 249.599 44.3055C248.541 44.3055 247.609 44.0525 246.804 43.5464C245.999 43.0403 245.47 42.2236 245.217 41.0964C245.194 40.9354 245.182 40.5788 245.182 40.0267C245.182 38.7155 245.585 37.0017 246.39 34.8853C247.195 32.7689 247.598 31.4231 247.598 30.848C247.598 30.825 247.598 30.802 247.598 30.779C247.598 30.572 247.598 30.4339 247.598 30.3649C247.598 30.2959 247.552 30.2154 247.459 30.1234C247.367 30.0314 247.241 29.9853 247.08 29.9853H246.942C246.413 29.9853 245.93 30.2039 245.493 30.641C245.056 31.0781 244.71 31.5496 244.457 32.0557C244.204 32.5618 244.009 33.0449 243.871 33.505C243.733 33.9651 243.641 34.2181 243.595 34.2641C243.549 34.3102 243.365 34.3332 243.043 34.3332H242.56C242.422 34.1951 242.353 34.0916 242.353 34.0226Z" fill="black"/>
<path d="M264.788 34.8967C264.788 34.8967 264.788 34.49 264.788 33.6765C264.788 32.8631 265.048 32.1635 265.569 31.5778C266.09 30.9921 266.789 30.6993 267.668 30.6993C268.579 30.6993 269.392 31.106 270.108 31.9195C270.824 32.7329 271.198 34.1646 271.231 36.2145C271.231 37.3533 271.084 38.4596 270.791 39.5333C270.498 40.6071 270.157 41.5344 269.766 42.3153C269.376 43.0962 268.953 43.7633 268.497 44.3164C268.042 44.8695 267.651 45.3088 267.326 45.6342C267.001 45.9596 266.789 46.106 266.692 46.0734C266.561 46.0734 266.35 45.927 266.057 45.6342C265.764 45.3413 265.618 45.1298 265.618 44.9997C265.618 44.8695 265.797 44.6092 266.155 44.2188C266.513 43.8283 266.919 43.3403 267.375 42.7546C267.83 42.1689 268.253 41.3555 268.644 40.3142C269.034 39.273 269.295 38.0854 269.425 36.7513V36.1657L269.376 36.2145C269.311 36.247 269.23 36.2795 269.132 36.3121C269.034 36.3446 268.937 36.3934 268.839 36.4585C268.741 36.5236 268.595 36.5561 268.4 36.5561C268.205 36.5561 268.009 36.5724 267.814 36.6049C266.936 36.6049 266.22 36.3284 265.667 35.7752L264.788 34.8967Z" fill="black"/>
<path d="M292.832 32.9933C292.832 33.7742 293.581 34.2297 295.077 34.3599C295.663 34.3599 295.956 34.5388 295.956 34.8967C295.956 34.9293 295.923 35.1408 295.858 35.5312C295.761 35.9868 295.663 36.2796 295.565 36.4098C295.468 36.5399 295.256 36.605 294.931 36.605C294.866 36.605 294.671 36.605 294.345 36.605C294.02 36.605 293.467 36.5887 292.686 36.5562C291.905 36.5236 290.864 36.5074 289.562 36.5074C287.252 36.5074 285.772 36.5399 285.121 36.605H284.73C284.503 36.3772 284.389 36.1983 284.389 36.0681C284.454 35.1896 284.665 34.6202 285.023 34.3599H285.706C287.984 34.2623 289.644 33.4488 290.685 31.9195C290.88 31.7243 293.825 26.7623 299.519 17.0334C305.213 7.30463 308.109 2.37514 308.206 2.24499C308.434 1.85453 308.825 1.65931 309.378 1.65931H309.768H310.598C310.793 1.95214 310.891 2.11483 310.891 2.14737L312.257 17.912C313.168 28.4217 313.656 33.7254 313.722 33.823C313.884 34.1809 314.942 34.3599 316.894 34.3599C317.707 34.3599 318.114 34.5226 318.114 34.8479C318.114 34.913 318.065 35.1408 317.968 35.5312C317.87 36.0193 317.789 36.3121 317.724 36.4098C317.659 36.5074 317.431 36.5724 317.04 36.605C316.943 36.605 316.715 36.605 316.357 36.605C315.999 36.605 315.365 36.5887 314.454 36.5562C313.543 36.5236 312.355 36.5074 310.891 36.5074C307.832 36.5074 305.831 36.5399 304.888 36.605H304.302C304.107 36.4098 304.009 36.2633 304.009 36.1657C304.009 36.0681 304.042 35.7753 304.107 35.2872C304.237 34.8642 304.334 34.6039 304.399 34.5063L304.595 34.3599H305.571C307.328 34.2623 308.369 33.9857 308.694 33.5302L308.109 26.2091H296.493L294.833 29.0399C293.499 31.285 292.832 32.6028 292.832 32.9933ZM307.865 23.9152C307.865 23.5573 307.67 21.0193 307.279 16.3013C306.889 11.5834 306.661 9.20809 306.596 9.17555L305.278 11.2742C304.757 12.1528 303.732 13.8935 302.203 16.4966L297.811 23.9152L302.838 23.964C306.189 23.964 307.865 23.9477 307.865 23.9152Z" fill="black"/>
<path d="M331.259 32.2629C331.029 32.2629 330.42 32.1364 329.43 31.8834C328.441 31.6303 327.717 31.5038 327.256 31.5038C326.796 31.5038 326.405 31.5498 326.083 31.6418C325.761 31.7338 325.497 31.8488 325.29 31.9869C325.083 32.1249 324.944 32.2514 324.875 32.3664C324.806 32.4815 324.726 32.608 324.634 32.746L324.565 32.884C324.496 32.9531 324.323 32.9876 324.047 32.9876C323.564 32.9876 323.323 32.8955 323.323 32.7115C323.323 32.5965 323.357 32.4355 323.426 32.2284C323.725 31.3313 324.22 30.5606 324.91 29.9165C325.6 29.2724 326.359 28.8813 327.187 28.7433C327.463 28.6973 327.659 28.6743 327.774 28.6743C328.349 28.6743 328.867 28.8698 329.327 29.2609C329.787 29.6519 330.224 30.0315 330.638 30.3996C331.052 30.7676 331.489 30.9632 331.949 30.9862C332.455 30.9862 332.961 30.6066 333.468 29.8475C333.974 29.0883 334.238 28.7088 334.261 28.7088C334.284 28.6858 334.457 28.6743 334.779 28.6743H335.227C335.365 28.8123 335.434 28.9043 335.434 28.9503C335.434 29.0423 335.377 29.2034 335.262 29.4334C335.147 29.6634 334.986 29.905 334.779 30.158C334.572 30.4111 334.376 30.6641 334.192 30.9172C334.008 31.1702 333.847 31.3888 333.709 31.5728L333.468 31.8834C332.478 33.0566 330.914 34.6094 328.775 36.5417C326.635 38.4741 325.313 39.7163 324.806 40.2684L324.392 40.6825L324.91 40.717C325.416 40.717 326.152 40.8435 327.118 41.0966C328.085 41.3496 328.809 41.4761 329.292 41.4761C330.166 41.4761 330.972 41.2576 331.708 40.8205C332.444 40.3834 332.927 39.8083 333.157 39.0952C333.249 38.8882 333.33 38.7616 333.399 38.7156C333.468 38.6696 333.64 38.6466 333.916 38.6466C334.353 38.6466 334.572 38.7616 334.572 38.9917C334.572 39.1067 334.56 39.2102 334.537 39.3022C334.146 40.7285 333.387 41.9132 332.26 42.8564C331.133 43.7996 330.005 44.2827 328.878 44.3057C328.28 44.3057 327.751 44.1101 327.291 43.7191C326.831 43.328 326.382 42.9369 325.945 42.5458C325.508 42.1548 325.071 41.9592 324.634 41.9592C323.622 41.9592 322.713 42.6494 321.908 44.0296C321.77 44.2136 321.574 44.3057 321.321 44.3057H321.149H320.7C320.562 44.1676 320.493 44.0641 320.493 43.9951C320.493 43.65 321.16 42.6609 322.495 41.0276C323.392 39.9924 324.91 38.4971 327.049 36.5417C329.189 34.5864 330.512 33.3441 331.018 32.815C331.294 32.447 331.374 32.2629 331.259 32.2629Z" fill="black"/>
<path d="M340.701 0.0488777L340.896 7.24792e-05C341.059 7.24792e-05 341.222 7.24792e-05 341.384 7.24792e-05H341.97L343.337 1.17144C346.395 3.93716 348.624 7.38617 350.023 11.5185C351.422 15.6508 352.122 19.9458 352.122 24.4035C352.122 26.6161 351.959 28.7473 351.634 30.7972C351.308 32.8471 350.934 34.5878 350.511 36.0195C350.088 37.4512 349.486 38.8828 348.705 40.3145C347.924 41.7462 347.306 42.8362 346.851 43.5846C346.395 44.3329 345.728 45.1626 344.85 46.0737C343.971 46.9848 343.451 47.5216 343.288 47.6843C343.125 47.847 342.751 48.1561 342.165 48.6117C342.068 48.7093 342.003 48.7743 341.97 48.8069H341.384C341.124 48.8069 340.945 48.8069 340.847 48.8069C340.75 48.8069 340.669 48.7581 340.603 48.6605C340.538 48.5629 340.49 48.4164 340.457 48.2212C340.49 48.1887 340.669 47.9772 340.994 47.5867C346.037 42.3481 348.559 34.6204 348.559 24.4035C348.559 14.1866 346.037 6.45884 340.994 1.22024C340.669 0.829788 340.49 0.61829 340.457 0.585754C340.457 0.325451 340.538 0.146492 340.701 0.0488777Z" fill="black"/>
</svg>
