<svg width="648" height="50" viewBox="0 0 648 50" fill="none" xmlns="http://www.w3.org/2000/svg">
<path d="M12.6615 35.4128C12.068 35.3139 9.89183 35.2645 6.13294 35.2645C2.63782 35.2645 0.741887 35.3139 0.445132 35.4128H0V32.3464H2.57188C4.28646 32.3464 5.14375 32.3134 5.14375 32.2475C13.1891 11.8703 17.3602 1.56629 17.6569 1.33548C17.8548 1.03872 18.4648 0.890347 19.4869 0.890347C20.4431 0.890347 21.0531 1.03872 21.3169 1.33548C21.4488 1.4344 22.5534 4.05573 24.6307 9.19949C26.7079 14.3432 28.7687 19.487 30.8131 24.6307L33.8301 32.2475C33.8301 32.3134 34.6874 32.3464 36.4019 32.3464H38.9738V35.4128H38.4298C37.7373 35.3139 35.116 35.2645 30.5658 35.2645C25.6528 35.2645 22.8007 35.3139 22.0093 35.4128H21.3664V32.3464H23.592C25.0428 32.3464 25.7682 32.3299 25.7682 32.2969L23.592 26.7575H10.9799L9.89183 29.4777C9.16643 31.2912 8.78724 32.2145 8.75427 32.2475C8.75427 32.3134 9.47967 32.3464 10.9305 32.3464H13.1561V35.4128H12.6615ZM17.3107 23.691L22.3555 23.6416L19.7837 17.3602C18.135 13.2057 17.2777 11.1284 17.2118 11.1284C13.8815 19.4375 12.2164 23.6251 12.2164 23.691H17.3107Z" fill="black"/>
<path d="M55.8496 23.0478C55.8496 22.2565 56.1299 21.5641 56.6904 20.9705C57.251 20.377 57.9599 20.0803 58.8172 20.0803C59.6085 20.0803 60.3009 20.3441 60.8944 20.8716C61.488 21.3992 61.8012 22.1081 61.8342 22.9984C61.8342 23.8227 61.5539 24.5316 60.9934 25.1251C60.4328 25.7186 59.7239 26.0154 58.8666 26.0154C58.0093 26.0154 57.3004 25.7351 56.7399 25.1746C56.1793 24.614 55.8826 23.9051 55.8496 23.0478Z" fill="black"/>
<path d="M112.34 10.1887C112.34 11.3097 112.076 12.3319 111.549 13.2551C111.021 14.1784 110.378 14.9038 109.62 15.4313C108.861 15.9589 108.103 16.404 107.345 16.7667C106.586 17.1294 105.943 17.3767 105.416 17.5086L104.624 17.657L105.564 17.8054C106.19 17.9043 106.998 18.1351 107.987 18.4978C108.977 18.8605 109.933 19.3551 110.856 19.9816C111.582 20.641 112.159 21.2345 112.587 21.7621C113.477 23.114 113.923 24.5483 113.923 26.0651V26.3618C113.923 27.1202 113.741 28.0764 113.379 29.2304C111.961 32.7585 108.762 34.7864 103.783 35.3139C103.652 35.3469 99.3816 35.3799 90.9735 35.4128H78.6582V32.3464H83.9998V4.55032H78.6582V1.48386H89.7865H96.9581C100.025 1.48386 102.217 1.56629 103.536 1.73115C104.855 1.89602 106.207 2.32466 107.592 3.01709C110.757 4.59978 112.34 6.99031 112.34 10.1887ZM104.575 10.0403C104.575 8.72138 104.328 7.64977 103.833 6.82545C103.338 6.00113 102.844 5.45708 102.349 5.19329C101.855 4.92951 101.327 4.74816 100.766 4.64924C100.536 4.5833 98.8705 4.55032 95.7711 4.55032H91.2208V16.5194H95.2765C98.0132 16.4865 99.53 16.437 99.8267 16.3711C102.992 15.7116 104.575 13.6014 104.575 10.0403ZM105.91 25.9167C105.91 22.1248 104.509 19.8662 101.706 19.1408C101.673 19.1078 101.64 19.0913 101.607 19.0913L96.414 19.0419H91.2208V32.3464H96.0678H96.513H98.6892C100.404 32.3464 101.789 32.1321 102.844 31.7034C103.899 31.2748 104.756 30.3515 105.416 28.9337C105.745 28.1423 105.91 27.1367 105.91 25.9167Z" fill="black"/>
<path d="M133.696 18.2502C133.696 17.8216 133.927 17.4918 134.389 17.261H165.894C166.389 17.5248 166.636 17.8545 166.636 18.2502C166.636 18.6129 166.405 18.9262 165.944 19.1899L150.216 19.2394H134.488C133.96 19.0745 133.696 18.7448 133.696 18.2502ZM133.696 27.8453C133.696 27.3507 133.96 27.021 134.488 26.8561H165.944C166.405 27.1858 166.636 27.5156 166.636 27.8453C166.636 28.2739 166.389 28.6037 165.894 28.8345H134.389C133.927 28.6037 133.696 28.2739 133.696 27.8453Z" fill="black"/>
<path d="M193.436 31.7529C193.436 32.5442 194.195 33.0058 195.711 33.1377C196.305 33.1377 196.602 33.3191 196.602 33.6818C196.602 33.7147 196.569 33.9291 196.503 34.3247C196.404 34.7864 196.305 35.0831 196.206 35.215C196.107 35.3469 195.893 35.4128 195.563 35.4128C195.497 35.4128 195.299 35.4128 194.97 35.4128C194.64 35.4128 194.079 35.3964 193.288 35.3634C192.497 35.3304 191.441 35.3139 190.123 35.3139C187.781 35.3139 186.281 35.3469 185.622 35.4128H185.226C184.995 35.182 184.88 35.0007 184.88 34.8688C184.946 33.9785 185.16 33.4015 185.523 33.1377H186.215C188.523 33.0388 190.205 32.2145 191.26 30.6648C191.458 30.4669 194.442 25.4386 200.212 15.5797C205.982 5.72086 208.917 0.725483 209.016 0.59359C209.247 0.197918 209.642 8.01086e-05 210.203 8.01086e-05H210.599H211.439C211.637 0.296837 211.736 0.4617 211.736 0.494671L213.121 16.47C214.044 27.1202 214.539 32.4948 214.605 32.5937C214.77 32.9564 215.841 33.1377 217.82 33.1377C218.644 33.1377 219.056 33.3026 219.056 33.6323C219.056 33.6983 219.007 33.9291 218.908 34.3247C218.809 34.8193 218.726 35.1161 218.66 35.215C218.595 35.3139 218.364 35.3799 217.968 35.4128C217.869 35.4128 217.638 35.4128 217.276 35.4128C216.913 35.4128 216.27 35.3964 215.347 35.3634C214.423 35.3304 213.22 35.3139 211.736 35.3139C208.637 35.3139 206.609 35.3469 205.653 35.4128H205.059C204.861 35.215 204.762 35.0666 204.762 34.9677C204.762 34.8688 204.795 34.572 204.861 34.0774C204.993 33.6488 205.092 33.385 205.158 33.2861L205.356 33.1377H206.345C208.126 33.0388 209.181 32.7585 209.511 32.2969L208.917 24.878H197.146L195.464 27.7467C194.112 30.0218 193.436 31.3572 193.436 31.7529ZM208.67 22.5535C208.67 22.1908 208.472 19.6189 208.076 14.8378C207.681 10.0568 207.45 7.64977 207.384 7.61679L206.048 9.74354C205.521 10.6338 204.482 12.3978 202.932 15.0357L198.481 22.5535L203.575 22.6029C206.972 22.6029 208.67 22.5864 208.67 22.5535Z" fill="black"/>
<path d="M222.062 32.7259C222.225 31.7468 222.855 30.6162 223.95 29.334C225.046 28.0519 226.398 27.3992 228.007 27.3758C228.823 27.3758 229.569 27.5857 230.245 28.0053C230.921 28.4249 231.422 28.9494 231.748 29.5788C232.727 28.1102 233.905 27.3758 235.28 27.3758C236.143 27.3758 236.888 27.6323 237.518 28.1451C238.147 28.658 238.474 29.3457 238.497 30.2082C238.497 30.8843 238.334 31.4321 238.007 31.8517C237.681 32.2713 237.366 32.5277 237.063 32.621C236.76 32.7142 236.492 32.7609 236.259 32.7609C235.816 32.7609 235.455 32.6327 235.175 32.3762C234.895 32.1198 234.755 31.7818 234.755 31.3622C234.755 30.2898 235.338 29.5555 236.504 29.1592C236.247 28.8561 235.781 28.7046 235.105 28.7046C234.802 28.7046 234.581 28.7279 234.441 28.7746C233.555 29.1475 232.902 29.9168 232.483 31.0824C231.084 36.2343 230.385 39.2415 230.385 40.1041C230.385 40.7568 230.571 41.223 230.944 41.5028C231.317 41.7825 231.725 41.9224 232.168 41.9224C233.03 41.9224 233.881 41.5377 234.721 40.7685C235.56 39.9992 236.131 39.055 236.434 37.9361C236.504 37.703 236.574 37.5747 236.644 37.5514C236.714 37.5281 236.9 37.5048 237.203 37.4815H237.343C237.693 37.4815 237.868 37.5747 237.868 37.7612C237.868 37.7845 237.844 37.9128 237.798 38.1459C237.425 39.4746 236.702 40.6519 235.63 41.6776C234.557 42.7033 233.31 43.2162 231.888 43.2162C230.256 43.2162 229.021 42.4819 228.182 41.0132C227.226 42.4586 226.13 43.1812 224.895 43.1812H224.685C223.543 43.1812 222.727 42.8782 222.237 42.2721C221.748 41.666 221.491 41.0249 221.468 40.3488C221.468 39.6029 221.689 38.9968 222.132 38.5305C222.575 38.0643 223.1 37.8312 223.706 37.8312C224.708 37.8312 225.209 38.3207 225.209 39.2998C225.209 39.766 225.069 40.174 224.79 40.5237C224.51 40.8734 224.242 41.1065 223.985 41.223C223.729 41.3396 223.577 41.3979 223.531 41.3979L223.426 41.4328C223.426 41.4561 223.496 41.5028 223.636 41.5727C223.776 41.6426 223.962 41.7242 224.195 41.8175C224.428 41.9107 224.65 41.9457 224.86 41.9224C225.699 41.9224 226.422 41.3979 227.028 40.3488C227.237 39.9759 227.506 39.1833 227.832 37.971C228.158 36.7588 228.485 35.5 228.811 34.1945C229.137 32.8891 229.324 32.1198 229.37 31.8867C229.487 31.2573 229.545 30.8027 229.545 30.5229C229.545 29.8702 229.37 29.404 229.021 29.1242C228.671 28.8445 228.275 28.7046 227.832 28.7046C226.899 28.7046 226.025 29.0776 225.209 29.8236C224.393 30.5696 223.822 31.5253 223.496 32.6909C223.449 32.9007 223.391 33.0173 223.321 33.0406C223.251 33.0639 223.065 33.0872 222.762 33.1105H222.272C222.132 32.9707 222.062 32.8425 222.062 32.7259Z" fill="black"/>
<path d="M254.146 3.90735C253.256 3.90735 252.728 3.89087 252.563 3.85789C252.399 3.82492 252.316 3.64357 252.316 3.31385C252.316 2.42358 252.498 1.87953 252.86 1.68169C252.893 1.64872 255.036 1.63223 259.29 1.63223C267.83 1.63223 272.331 1.66521 272.792 1.73115C274.87 2.06088 276.601 2.80277 277.985 3.95681C279.37 5.11086 280.079 6.62761 280.112 8.50706C280.112 10.6173 279.156 12.5132 277.244 14.1949C275.331 15.8765 273.138 17.014 270.666 17.6075L270.171 17.7559C272.281 18.0527 274.012 18.811 275.364 20.031C276.716 21.251 277.408 22.7678 277.441 24.5813C277.441 26.9883 276.254 29.3129 273.88 31.555C271.506 33.7972 268.588 35.0666 265.126 35.3634C264.895 35.3964 261.417 35.4128 254.69 35.4128C248.096 35.4128 244.749 35.3799 244.65 35.3139C244.518 35.215 244.452 35.0831 244.452 34.9183C244.452 34.6874 244.485 34.4566 244.551 34.2258C244.716 33.5993 244.881 33.2531 245.046 33.1872C245.178 33.1542 245.425 33.1377 245.788 33.1377H246.084C246.975 33.1377 247.964 33.0883 249.052 32.9893C249.513 32.8904 249.827 32.6926 249.992 32.3958C250.09 32.2639 251.278 27.6807 253.553 18.6462C255.828 9.61164 256.965 4.84708 256.965 4.35249C256.965 4.12168 256.026 3.9733 254.146 3.90735ZM274.82 8.50706C274.82 7.51787 274.573 6.59464 274.078 5.73734C273.584 4.88005 272.776 4.31952 271.655 4.05573C271.424 3.98979 269.907 3.94033 267.104 3.90735C266.445 3.90735 265.753 3.90735 265.027 3.90735C264.302 3.90735 263.725 3.92384 263.296 3.95681H262.653C262.159 3.98979 261.845 4.15465 261.713 4.45141C261.647 4.5833 261.12 6.56166 260.131 10.3865C260.131 10.4854 260.114 10.5843 260.081 10.6833L258.548 16.9151H262.554C265.225 16.9151 266.758 16.8821 267.154 16.8162C269.132 16.4865 270.896 15.5303 272.446 13.9476C273.996 12.3649 274.787 10.5514 274.82 8.50706ZM272.149 24.0867C272.149 22.6359 271.77 21.4324 271.012 20.4762C270.253 19.52 269.264 18.9594 268.044 18.7946C267.846 18.7616 266.478 18.7451 263.939 18.7451C260.048 18.7451 258.086 18.7616 258.053 18.7946C258.053 18.8605 257.773 20.064 257.213 22.4051C256.652 24.7461 256.075 27.0707 255.482 29.3788L254.591 32.841C254.591 32.9729 254.789 33.0388 255.185 33.0388C255.58 33.0388 256.916 33.0718 259.191 33.1377C262.126 33.1377 263.708 33.1212 263.939 33.0883C265.983 32.8575 267.863 31.9012 269.577 30.2196C271.292 28.538 272.149 26.4937 272.149 24.0867Z" fill="black"/>
<path d="M282.081 32.7259C282.244 31.7468 282.873 30.6162 283.969 29.334C285.065 28.0519 286.417 27.3992 288.025 27.3758C288.841 27.3758 289.587 27.5857 290.263 28.0053C290.939 28.4249 291.44 28.9494 291.767 29.5788C292.746 28.1102 293.923 27.3758 295.299 27.3758C296.161 27.3758 296.907 27.6323 297.536 28.1451C298.166 28.658 298.492 29.3457 298.516 30.2082C298.516 30.8843 298.352 31.4321 298.026 31.8517C297.7 32.2713 297.385 32.5277 297.082 32.621C296.779 32.7142 296.511 32.7609 296.278 32.7609C295.835 32.7609 295.473 32.6327 295.194 32.3762C294.914 32.1198 294.774 31.7818 294.774 31.3622C294.774 30.2898 295.357 29.5555 296.522 29.1592C296.266 28.8561 295.8 28.7046 295.124 28.7046C294.821 28.7046 294.599 28.7279 294.459 28.7746C293.573 29.1475 292.921 29.9168 292.501 31.0824C291.102 36.2343 290.403 39.2415 290.403 40.1041C290.403 40.7568 290.59 41.223 290.963 41.5028C291.336 41.7825 291.743 41.9224 292.186 41.9224C293.049 41.9224 293.9 41.5377 294.739 40.7685C295.578 39.9992 296.149 39.055 296.452 37.9361C296.522 37.703 296.592 37.5747 296.662 37.5514C296.732 37.5281 296.919 37.5048 297.222 37.4815H297.362C297.711 37.4815 297.886 37.5747 297.886 37.7612C297.886 37.7845 297.863 37.9128 297.816 38.1459C297.443 39.4746 296.721 40.6519 295.648 41.6776C294.576 42.7033 293.329 43.2162 291.907 43.2162C290.275 43.2162 289.039 42.4819 288.2 41.0132C287.244 42.4586 286.149 43.1812 284.913 43.1812H284.703C283.561 43.1812 282.745 42.8782 282.256 42.2721C281.766 41.666 281.51 41.0249 281.486 40.3488C281.486 39.6029 281.708 38.9968 282.151 38.5305C282.594 38.0643 283.118 37.8312 283.724 37.8312C284.727 37.8312 285.228 38.3207 285.228 39.2998C285.228 39.766 285.088 40.174 284.808 40.5237C284.529 40.8734 284.26 41.1065 284.004 41.223C283.748 41.3396 283.596 41.3979 283.549 41.3979L283.445 41.4328C283.445 41.4561 283.514 41.5028 283.654 41.5727C283.794 41.6426 283.981 41.7242 284.214 41.8175C284.447 41.9107 284.668 41.9457 284.878 41.9224C285.717 41.9224 286.44 41.3979 287.046 40.3488C287.256 39.9759 287.524 39.1833 287.85 37.971C288.177 36.7588 288.503 35.5 288.83 34.1945C289.156 32.8891 289.342 32.1198 289.389 31.8867C289.506 31.2573 289.564 30.8027 289.564 30.5229C289.564 29.8702 289.389 29.404 289.039 29.1242C288.69 28.8445 288.293 28.7046 287.85 28.7046C286.918 28.7046 286.044 29.0776 285.228 29.8236C284.412 30.5696 283.841 31.5253 283.514 32.6909C283.468 32.9007 283.41 33.0173 283.34 33.0406C283.27 33.0639 283.083 33.0872 282.78 33.1105H282.291C282.151 32.9707 282.081 32.8425 282.081 32.7259Z" fill="black"/>
<path d="M316.499 23.6909C316.499 23.6909 316.499 23.4766 316.499 23.0479C316.499 22.6193 316.73 22.2896 317.191 22.0588H331.98V14.6399L332.029 7.22101C332.359 6.79236 332.672 6.57804 332.969 6.57804C333.398 6.57804 333.727 6.82534 333.958 7.31993V22.0588H348.697C349.192 22.3225 349.439 22.6523 349.439 23.0479C349.439 23.4436 349.192 23.7733 348.697 24.0371H333.958V38.776C333.694 39.2376 333.398 39.4684 333.068 39.4684H332.969H332.87C332.474 39.4684 332.178 39.2376 331.98 38.776V24.0371H317.191C316.73 23.8063 316.499 23.4766 316.499 23.0479V23.6909Z" fill="black"/>
<path d="M373.485 31.7529C373.485 32.5442 374.244 33.0058 375.76 33.1377C376.354 33.1377 376.651 33.3191 376.651 33.6818C376.651 33.7147 376.618 33.9291 376.552 34.3247C376.453 34.7864 376.354 35.0831 376.255 35.215C376.156 35.3469 375.942 35.4128 375.612 35.4128C375.546 35.4128 375.348 35.4128 375.018 35.4128C374.689 35.4128 374.128 35.3964 373.337 35.3634C372.545 35.3304 371.49 35.3139 370.171 35.3139C367.83 35.3139 366.33 35.3469 365.671 35.4128H365.275C365.044 35.182 364.929 35.0007 364.929 34.8688C364.995 33.9785 365.209 33.4015 365.572 33.1377H366.264C368.572 33.0388 370.254 32.2145 371.309 30.6648C371.507 30.4669 374.491 25.4386 380.261 15.5797C386.031 5.72086 388.966 0.725483 389.065 0.59359C389.296 0.197918 389.691 8.01086e-05 390.252 8.01086e-05H390.647H391.488C391.686 0.296837 391.785 0.4617 391.785 0.494671L393.17 16.47C394.093 27.1202 394.588 32.4948 394.654 32.5937C394.819 32.9564 395.89 33.1377 397.869 33.1377C398.693 33.1377 399.105 33.3026 399.105 33.6323C399.105 33.6983 399.056 33.9291 398.957 34.3247C398.858 34.8193 398.775 35.1161 398.709 35.215C398.643 35.3139 398.413 35.3799 398.017 35.4128C397.918 35.4128 397.687 35.4128 397.324 35.4128C396.962 35.4128 396.319 35.3964 395.396 35.3634C394.472 35.3304 393.269 35.3139 391.785 35.3139C388.686 35.3139 386.658 35.3469 385.702 35.4128H385.108C384.91 35.215 384.811 35.0666 384.811 34.9677C384.811 34.8688 384.844 34.572 384.91 34.0774C385.042 33.6488 385.141 33.385 385.207 33.2861L385.405 33.1377H386.394C388.175 33.0388 389.23 32.7585 389.559 32.2969L388.966 24.878H377.195L375.513 27.7467C374.161 30.0218 373.485 31.3572 373.485 31.7529ZM388.719 22.5535C388.719 22.1908 388.521 19.6189 388.125 14.8378C387.729 10.0568 387.499 7.64977 387.433 7.61679L386.097 9.74354C385.57 10.6338 384.531 12.3978 382.981 15.0357L378.53 22.5535L383.624 22.6029C387.02 22.6029 388.719 22.5864 388.719 22.5535Z" fill="black"/>
<path d="M401.027 32.7958C401.027 32.4694 401.202 31.91 401.552 31.1174C401.902 30.3248 402.461 29.4972 403.23 28.6347C404 27.7721 404.862 27.3525 405.818 27.3758C406.774 27.3758 407.543 27.6439 408.126 28.1801C408.709 28.7162 409.012 29.4622 409.035 30.418C408.988 30.8609 408.953 31.1057 408.93 31.1523C408.93 31.2223 408.744 31.7584 408.371 32.7608C407.998 33.7632 407.613 34.8939 407.217 36.1527C406.82 37.4115 406.634 38.4139 406.657 39.1599C406.657 40.1623 406.82 40.8617 407.147 41.258C407.473 41.6543 407.963 41.8641 408.615 41.8874C409.151 41.8874 409.653 41.7592 410.119 41.5027C410.585 41.2463 410.946 40.9782 411.203 40.6985C411.459 40.4187 411.774 40.0341 412.147 39.5446C412.147 39.5212 412.205 39.2881 412.322 38.8452C412.438 38.4023 412.602 37.7146 412.811 36.7821C413.021 35.8496 413.243 34.9871 413.476 34.1945C414.362 30.6977 414.851 28.8678 414.944 28.7046C415.248 28.0752 415.749 27.7605 416.448 27.7605C416.751 27.7605 416.996 27.8421 417.182 28.0052C417.369 28.1684 417.497 28.3083 417.567 28.4249C417.637 28.5414 417.66 28.6463 417.637 28.7396C417.637 29.0426 417.066 31.4903 415.924 36.0828C414.781 40.6752 414.129 43.1928 413.965 43.6358C413.313 45.5706 412.182 47.1092 410.574 48.2515C408.965 49.3938 407.356 49.9766 405.748 49.9999C404.699 49.9999 403.778 49.7434 402.986 49.2306C402.193 48.7177 401.797 47.9484 401.797 46.9227C401.797 46.4099 401.878 45.9786 402.041 45.6289C402.205 45.2792 402.426 45.0228 402.706 44.8596C402.986 44.6965 403.219 44.5799 403.405 44.51C403.592 44.44 403.79 44.4051 404 44.4051C405.025 44.4051 405.538 44.8946 405.538 45.8737C405.538 46.3399 405.398 46.7479 405.119 47.0976C404.839 47.4472 404.571 47.6804 404.314 47.7969C404.058 47.9135 403.906 47.9718 403.86 47.9718L403.755 48.0067C403.801 48.1233 404.023 48.2632 404.419 48.4263C404.816 48.5895 405.212 48.6711 405.608 48.6711H405.888C406.284 48.6711 406.587 48.6478 406.797 48.6012C407.566 48.3914 408.277 47.9484 408.93 47.2724C409.583 46.5964 410.084 45.8737 410.434 45.1044C410.783 44.3351 411.051 43.6824 411.238 43.1462C411.424 42.6101 411.518 42.2604 411.518 42.0972L411.308 42.2371C411.168 42.3303 410.946 42.4585 410.643 42.6217C410.34 42.7849 410.037 42.9248 409.734 43.0413C409.268 43.1579 408.813 43.2162 408.371 43.2162C407.298 43.2162 406.354 42.9597 405.538 42.4469C404.722 41.934 404.186 41.1064 403.93 39.9642C403.906 39.801 403.895 39.4397 403.895 38.8802C403.895 37.5514 404.303 35.8147 405.119 33.67C405.934 31.5253 406.342 30.1616 406.342 29.5788C406.342 29.5555 406.342 29.5322 406.342 29.5088C406.342 29.299 406.342 29.1592 406.342 29.0892C406.342 29.0193 406.296 28.9377 406.203 28.8445C406.109 28.7512 405.981 28.7046 405.818 28.7046H405.678C405.142 28.7046 404.652 28.9261 404.209 29.369C403.766 29.8119 403.417 30.2898 403.16 30.8026C402.904 31.3155 402.706 31.8051 402.566 32.2713C402.426 32.7375 402.333 32.994 402.286 33.0406C402.24 33.0872 402.053 33.1105 401.727 33.1105H401.237C401.097 32.9706 401.027 32.8657 401.027 32.7958Z" fill="black"/>
<path d="M431.331 3.90735C430.44 3.90735 429.913 3.89087 429.748 3.85789C429.583 3.82492 429.501 3.64357 429.501 3.31385C429.501 2.42358 429.682 1.87953 430.045 1.68169C430.078 1.64872 432.221 1.63223 436.474 1.63223C445.014 1.63223 449.515 1.66521 449.977 1.73115C452.054 2.06088 453.785 2.80277 455.17 3.95681C456.555 5.11086 457.264 6.62761 457.297 8.50706C457.297 10.6173 456.341 12.5132 454.428 14.1949C452.516 15.8765 450.323 17.014 447.85 17.6075L447.355 17.7559C449.466 18.0527 451.197 18.811 452.549 20.031C453.901 21.251 454.593 22.7678 454.626 24.5813C454.626 26.9883 453.439 29.3129 451.065 31.555C448.691 33.7972 445.773 35.0666 442.311 35.3634C442.08 35.3964 438.601 35.4128 431.875 35.4128C425.28 35.4128 421.933 35.3799 421.835 35.3139C421.703 35.215 421.637 35.0831 421.637 34.9183C421.637 34.6874 421.67 34.4566 421.736 34.2258C421.901 33.5993 422.065 33.2531 422.23 33.1872C422.362 33.1542 422.609 33.1377 422.972 33.1377H423.269C424.159 33.1377 425.148 33.0883 426.236 32.9893C426.698 32.8904 427.011 32.6926 427.176 32.3958C427.275 32.2639 428.462 27.6807 430.737 18.6462C433.012 9.61164 434.15 4.84708 434.15 4.35249C434.15 4.12168 433.21 3.9733 431.331 3.90735ZM452.005 8.50706C452.005 7.51787 451.757 6.59464 451.263 5.73734C450.768 4.88005 449.96 4.31952 448.839 4.05573C448.608 3.98979 447.092 3.94033 444.289 3.90735C443.63 3.90735 442.937 3.90735 442.212 3.90735C441.486 3.90735 440.909 3.92384 440.481 3.95681H439.838C439.343 3.98979 439.03 4.15465 438.898 4.45141C438.832 4.5833 438.304 6.56166 437.315 10.3865C437.315 10.4854 437.299 10.5843 437.266 10.6833L435.733 16.9151H439.739C442.41 16.9151 443.943 16.8821 444.338 16.8162C446.317 16.4865 448.081 15.5303 449.631 13.9476C451.18 12.3649 451.972 10.5514 452.005 8.50706ZM449.334 24.0867C449.334 22.6359 448.955 21.4324 448.196 20.4762C447.438 19.52 446.449 18.9594 445.229 18.7946C445.031 18.7616 443.663 18.7451 441.124 18.7451C437.233 18.7451 435.271 18.7616 435.238 18.7946C435.238 18.8605 434.958 20.064 434.397 22.4051C433.837 24.7461 433.26 27.0707 432.666 29.3788L431.776 32.841C431.776 32.9729 431.974 33.0388 432.369 33.0388C432.765 33.0388 434.1 33.0718 436.376 33.1377C439.31 33.1377 440.893 33.1212 441.124 33.0883C443.168 32.8575 445.047 31.9012 446.762 30.2196C448.477 28.538 449.334 26.4937 449.334 24.0867Z" fill="black"/>
<path d="M458.181 32.7958C458.181 32.4694 458.356 31.91 458.705 31.1174C459.055 30.3248 459.614 29.4972 460.384 28.6347C461.153 27.7721 462.015 27.3525 462.971 27.3758C463.927 27.3758 464.696 27.6439 465.279 28.1801C465.862 28.7162 466.165 29.4622 466.188 30.418C466.142 30.8609 466.107 31.1057 466.083 31.1523C466.083 31.2223 465.897 31.7584 465.524 32.7608C465.151 33.7632 464.766 34.8939 464.37 36.1527C463.974 37.4115 463.787 38.4139 463.81 39.1599C463.81 40.1623 463.974 40.8617 464.3 41.258C464.626 41.6543 465.116 41.8641 465.769 41.8874C466.305 41.8874 466.806 41.7592 467.272 41.5027C467.738 41.2463 468.1 40.9782 468.356 40.6985C468.613 40.4187 468.927 40.0341 469.3 39.5446C469.3 39.5212 469.359 39.2881 469.475 38.8452C469.592 38.4023 469.755 37.7146 469.965 36.7821C470.175 35.8496 470.396 34.9871 470.629 34.1945C471.515 30.6977 472.005 28.8678 472.098 28.7046C472.401 28.0752 472.902 27.7605 473.601 27.7605C473.904 27.7605 474.149 27.8421 474.336 28.0052C474.522 28.1684 474.65 28.3083 474.72 28.4249C474.79 28.5414 474.814 28.6463 474.79 28.7396C474.79 29.0426 474.219 31.4903 473.077 36.0828C471.935 40.6752 471.282 43.1928 471.119 43.6358C470.466 45.5706 469.335 47.1092 467.727 48.2515C466.118 49.3938 464.51 49.9766 462.901 49.9999C461.852 49.9999 460.931 49.7434 460.139 49.2306C459.346 48.7177 458.95 47.9484 458.95 46.9227C458.95 46.4099 459.032 45.9786 459.195 45.6289C459.358 45.2792 459.579 45.0228 459.859 44.8596C460.139 44.6965 460.372 44.5799 460.558 44.51C460.745 44.44 460.943 44.4051 461.153 44.4051C462.179 44.4051 462.691 44.8946 462.691 45.8737C462.691 46.3399 462.552 46.7479 462.272 47.0976C461.992 47.4472 461.724 47.6804 461.468 47.7969C461.211 47.9135 461.06 47.9718 461.013 47.9718L460.908 48.0067C460.955 48.1233 461.176 48.2632 461.573 48.4263C461.969 48.5895 462.365 48.6711 462.761 48.6711H463.041C463.437 48.6711 463.741 48.6478 463.95 48.6012C464.72 48.3914 465.431 47.9484 466.083 47.2724C466.736 46.5964 467.237 45.8737 467.587 45.1044C467.937 44.3351 468.205 43.6824 468.391 43.1462C468.578 42.6101 468.671 42.2604 468.671 42.0972L468.461 42.2371C468.321 42.3303 468.1 42.4585 467.797 42.6217C467.494 42.7849 467.191 42.9248 466.888 43.0413C466.421 43.1579 465.967 43.2162 465.524 43.2162C464.452 43.2162 463.507 42.9597 462.691 42.4469C461.876 41.934 461.339 41.1064 461.083 39.9642C461.06 39.801 461.048 39.4397 461.048 38.8802C461.048 37.5514 461.456 35.8147 462.272 33.67C463.088 31.5253 463.496 30.1616 463.496 29.5788C463.496 29.5555 463.496 29.5322 463.496 29.5088C463.496 29.299 463.496 29.1592 463.496 29.0892C463.496 29.0193 463.449 28.9377 463.356 28.8445C463.263 28.7512 463.134 28.7046 462.971 28.7046H462.831C462.295 28.7046 461.806 28.9261 461.363 29.369C460.92 29.8119 460.57 30.2898 460.314 30.8026C460.057 31.3155 459.859 31.8051 459.719 32.2713C459.579 32.7375 459.486 32.994 459.439 33.0406C459.393 33.0872 459.206 33.1105 458.88 33.1105H458.39C458.251 32.9706 458.181 32.8657 458.181 32.7958Z" fill="black"/>
<path d="M490.813 23.6908C490.813 23.6908 490.813 23.4765 490.813 23.0478C490.813 22.6192 491.044 22.2894 491.506 22.0586H506.294V14.6398L506.344 7.22089C506.673 6.79224 506.987 6.57792 507.283 6.57792C507.712 6.57792 508.042 6.82521 508.273 7.31981V22.0586H523.011C523.506 22.3224 523.753 22.6521 523.753 23.0478C523.753 23.4435 523.506 23.7732 523.011 24.037H508.273V38.7758C508.009 39.2375 507.712 39.4683 507.382 39.4683H507.283H507.184C506.789 39.4683 506.492 39.2375 506.294 38.7758V24.037H491.506C491.044 23.8062 490.813 23.4765 490.813 23.0478V23.6908Z" fill="black"/>
<path d="M547.8 31.7529C547.8 32.5442 548.558 33.0058 550.075 33.1377C550.668 33.1377 550.965 33.3191 550.965 33.6818C550.965 33.7147 550.932 33.9291 550.866 34.3247C550.767 34.7864 550.668 35.0831 550.569 35.215C550.47 35.3469 550.256 35.4128 549.926 35.4128C549.86 35.4128 549.663 35.4128 549.333 35.4128C549.003 35.4128 548.443 35.3964 547.651 35.3634C546.86 35.3304 545.805 35.3139 544.486 35.3139C542.145 35.3139 540.645 35.3469 539.985 35.4128H539.589C539.359 35.182 539.243 35.0007 539.243 34.8688C539.309 33.9785 539.523 33.4015 539.886 33.1377H540.579C542.887 33.0388 544.568 32.2145 545.623 30.6648C545.821 30.4669 548.805 25.4386 554.576 15.5797C560.346 5.72086 563.28 0.725483 563.379 0.59359C563.61 0.197918 564.006 8.01086e-05 564.566 8.01086e-05H564.962H565.803C566.001 0.296837 566.099 0.4617 566.099 0.494671L567.484 16.47C568.408 27.1202 568.902 32.4948 568.968 32.5937C569.133 32.9564 570.205 33.1377 572.183 33.1377C573.007 33.1377 573.419 33.3026 573.419 33.6323C573.419 33.6983 573.37 33.9291 573.271 34.3247C573.172 34.8193 573.09 35.1161 573.024 35.215C572.958 35.3139 572.727 35.3799 572.331 35.4128C572.232 35.4128 572.002 35.4128 571.639 35.4128C571.276 35.4128 570.633 35.3964 569.71 35.3634C568.787 35.3304 567.583 35.3139 566.099 35.3139C563 35.3139 560.972 35.3469 560.016 35.4128H559.423C559.225 35.215 559.126 35.0666 559.126 34.9677C559.126 34.8688 559.159 34.572 559.225 34.0774C559.357 33.6488 559.455 33.385 559.521 33.2861L559.719 33.1377H560.708C562.489 33.0388 563.544 32.7585 563.874 32.2969L563.28 24.878H551.509L549.827 27.7467C548.476 30.0218 547.8 31.3572 547.8 31.7529ZM563.033 22.5535C563.033 22.1908 562.835 19.6189 562.44 14.8378C562.044 10.0568 561.813 7.64977 561.747 7.61679L560.412 9.74354C559.884 10.6338 558.845 12.3978 557.296 15.0357L552.844 22.5535L557.939 22.6029C561.335 22.6029 563.033 22.5864 563.033 22.5535Z" fill="black"/>
<path d="M586.741 31.0124C586.508 31.0124 585.89 30.8841 584.888 30.6277C583.885 30.3713 583.151 30.2431 582.685 30.2431C582.218 30.2431 581.822 30.2897 581.496 30.3829C581.169 30.4762 580.901 30.5927 580.692 30.7326C580.482 30.8725 580.342 31.0007 580.272 31.1173C580.202 31.2338 580.12 31.362 580.027 31.5019L579.957 31.6418C579.887 31.7117 579.712 31.7467 579.433 31.7467C578.943 31.7467 578.698 31.6534 578.698 31.4669C578.698 31.3504 578.733 31.1872 578.803 30.9774C579.106 30.0682 579.608 29.2873 580.307 28.6346C581.006 27.9818 581.776 27.5855 582.615 27.4457C582.895 27.399 583.093 27.3757 583.209 27.3757C583.792 27.3757 584.317 27.5739 584.783 27.9702C585.249 28.3665 585.692 28.7511 586.112 29.1241C586.531 29.4971 586.974 29.6952 587.44 29.7186C587.953 29.7186 588.466 29.3339 588.979 28.5646C589.492 27.7953 589.76 27.4107 589.783 27.4107C589.806 27.3874 589.981 27.3757 590.308 27.3757H590.762C590.902 27.5156 590.972 27.6088 590.972 27.6555C590.972 27.7487 590.914 27.9119 590.797 28.145C590.681 28.3781 590.517 28.6229 590.308 28.8793C590.098 29.1358 589.9 29.3922 589.713 29.6486C589.527 29.9051 589.364 30.1265 589.224 30.313L588.979 30.6277C587.976 31.8166 586.391 33.3902 584.223 35.3483C582.055 37.3065 580.715 38.5654 580.202 39.1249L579.782 39.5445L580.307 39.5794C580.82 39.5794 581.566 39.7076 582.545 39.9641C583.524 40.2205 584.258 40.3487 584.748 40.3487C585.634 40.3487 586.45 40.1273 587.196 39.6843C587.942 39.2414 588.431 38.6586 588.664 37.936C588.757 37.7261 588.839 37.5979 588.909 37.5513C588.979 37.5047 589.154 37.4814 589.433 37.4814C589.876 37.4814 590.098 37.5979 590.098 37.831C590.098 37.9476 590.086 38.0525 590.063 38.1458C589.667 39.5911 588.897 40.7916 587.755 41.7474C586.613 42.7032 585.47 43.1928 584.328 43.2161C583.722 43.2161 583.186 43.0179 582.72 42.6216C582.253 42.2253 581.799 41.829 581.356 41.4327C580.913 41.0364 580.47 40.8383 580.027 40.8383C579.001 40.8383 578.081 41.5376 577.265 42.9363C577.125 43.1228 576.927 43.2161 576.67 43.2161H576.495H576.041C575.901 43.0762 575.831 42.9713 575.831 42.9014C575.831 42.5517 576.507 41.5493 577.859 39.8941C578.768 38.8451 580.307 37.3298 582.475 35.3483C584.643 33.3668 585.983 32.108 586.496 31.5718C586.776 31.1989 586.858 31.0124 586.741 31.0124Z" fill="black"/>
<path d="M604.765 3.90735C603.875 3.90735 603.347 3.89087 603.183 3.85789C603.018 3.82492 602.935 3.64357 602.935 3.31385C602.935 2.42358 603.117 1.87953 603.479 1.68169C603.512 1.64872 605.656 1.63223 609.909 1.63223C618.449 1.63223 622.95 1.66521 623.411 1.73115C625.489 2.06088 627.22 2.80277 628.605 3.95681C629.989 5.11086 630.698 6.62761 630.731 8.50706C630.731 10.6173 629.775 12.5132 627.863 14.1949C625.95 15.8765 623.758 17.014 621.285 17.6075L620.79 17.7559C622.9 18.0527 624.631 18.811 625.983 20.031C627.335 21.251 628.028 22.7678 628.061 24.5813C628.061 26.9883 626.874 29.3129 624.499 31.555C622.125 33.7972 619.207 35.0666 615.745 35.3634C615.514 35.3964 612.036 35.4128 605.309 35.4128C598.715 35.4128 595.368 35.3799 595.269 35.3139C595.137 35.215 595.071 35.0831 595.071 34.9183C595.071 34.6874 595.104 34.4566 595.17 34.2258C595.335 33.5993 595.5 33.2531 595.665 33.1872C595.797 33.1542 596.044 33.1377 596.407 33.1377H596.703C597.594 33.1377 598.583 33.0883 599.671 32.9893C600.133 32.8904 600.446 32.6926 600.611 32.3958C600.71 32.2639 601.897 27.6807 604.172 18.6462C606.447 9.61164 607.584 4.84708 607.584 4.35249C607.584 4.12168 606.645 3.9733 604.765 3.90735ZM625.439 8.50706C625.439 7.51787 625.192 6.59464 624.697 5.73734C624.203 4.88005 623.395 4.31952 622.274 4.05573C622.043 3.98979 620.526 3.94033 617.724 3.90735C617.064 3.90735 616.372 3.90735 615.646 3.90735C614.921 3.90735 614.344 3.92384 613.915 3.95681H613.272C612.778 3.98979 612.464 4.15465 612.333 4.45141C612.267 4.5833 611.739 6.56166 610.75 10.3865C610.75 10.4854 610.733 10.5843 610.7 10.6833L609.167 16.9151H613.173C615.844 16.9151 617.377 16.8821 617.773 16.8162C619.751 16.4865 621.515 15.5303 623.065 13.9476C624.615 12.3649 625.406 10.5514 625.439 8.50706ZM622.768 24.0867C622.768 22.6359 622.389 21.4324 621.631 20.4762C620.872 19.52 619.883 18.9594 618.663 18.7946C618.465 18.7616 617.097 18.7451 614.558 18.7451C610.667 18.7451 608.706 18.7616 608.673 18.7946C608.673 18.8605 608.392 20.064 607.832 22.4051C607.271 24.7461 606.694 27.0707 606.101 29.3788L605.21 32.841C605.21 32.9729 605.408 33.0388 605.804 33.0388C606.2 33.0388 607.535 33.0718 609.81 33.1377C612.745 33.1377 614.327 33.1212 614.558 33.0883C616.603 32.8575 618.482 31.9012 620.197 30.2196C621.911 28.538 622.768 26.4937 622.768 24.0867Z" fill="black"/>
<path d="M643.014 31.0124C642.781 31.0124 642.164 30.8841 641.161 30.6277C640.159 30.3713 639.424 30.2431 638.958 30.2431C638.492 30.2431 638.096 30.2897 637.769 30.3829C637.443 30.4762 637.175 30.5927 636.965 30.7326C636.755 30.8725 636.615 31.0007 636.545 31.1173C636.475 31.2338 636.394 31.362 636.301 31.5019L636.231 31.6418C636.161 31.7117 635.986 31.7467 635.706 31.7467C635.217 31.7467 634.972 31.6534 634.972 31.4669C634.972 31.3504 635.007 31.1872 635.077 30.9774C635.38 30.0682 635.881 29.2873 636.58 28.6346C637.28 27.9818 638.049 27.5855 638.888 27.4457C639.168 27.399 639.366 27.3757 639.483 27.3757C640.065 27.3757 640.59 27.5739 641.056 27.9702C641.522 28.3665 641.965 28.7511 642.385 29.1241C642.805 29.4971 643.248 29.6952 643.714 29.7186C644.227 29.7186 644.739 29.3339 645.252 28.5646C645.765 27.7953 646.033 27.4107 646.057 27.4107C646.08 27.3874 646.255 27.3757 646.581 27.3757H647.036C647.176 27.5156 647.245 27.6088 647.245 27.6555C647.245 27.7487 647.187 27.9119 647.071 28.145C646.954 28.3781 646.791 28.6229 646.581 28.8793C646.371 29.1358 646.173 29.3922 645.987 29.6486C645.8 29.9051 645.637 30.1265 645.497 30.313L645.252 30.6277C644.25 31.8166 642.665 33.3902 640.497 35.3483C638.329 37.3065 636.988 38.5654 636.475 39.1249L636.056 39.5445L636.58 39.5794C637.093 39.5794 637.839 39.7076 638.818 39.9641C639.797 40.2205 640.532 40.3487 641.021 40.3487C641.907 40.3487 642.723 40.1273 643.469 39.6843C644.215 39.2414 644.704 38.6586 644.938 37.936C645.031 37.7261 645.112 37.5979 645.182 37.5513C645.252 37.5047 645.427 37.4814 645.707 37.4814C646.15 37.4814 646.371 37.5979 646.371 37.831C646.371 37.9476 646.36 38.0525 646.336 38.1458C645.94 39.5911 645.171 40.7916 644.028 41.7474C642.886 42.7032 641.744 43.1928 640.602 43.2161C639.996 43.2161 639.459 43.0179 638.993 42.6216C638.527 42.2253 638.072 41.829 637.629 41.4327C637.186 41.0364 636.744 40.8383 636.301 40.8383C635.275 40.8383 634.354 41.5376 633.538 42.9363C633.398 43.1228 633.2 43.2161 632.944 43.2161H632.769H632.314C632.174 43.0762 632.104 42.9713 632.104 42.9014C632.104 42.5517 632.781 41.5493 634.133 39.8941C635.042 38.8451 636.58 37.3298 638.748 35.3483C640.916 33.3668 642.257 32.108 642.77 31.5718C643.049 31.1989 643.131 31.0124 643.014 31.0124Z" fill="black"/>
</svg>
