<svg width="325" height="52" viewBox="0 0 325 52" fill="none" xmlns="http://www.w3.org/2000/svg">
<path d="M30.7754 11.825C30.7754 12.9419 30.5344 13.9601 30.0524 14.8799C29.5703 15.7996 28.9828 16.5222 28.2899 17.0478C27.597 17.5733 26.904 18.0168 26.2111 18.3781C25.5182 18.7394 24.9307 18.9858 24.4486 19.1172L23.7256 19.265L24.5842 19.4128C25.1566 19.5114 25.8948 19.7413 26.7986 20.1026C27.7024 20.4639 28.5761 20.9566 29.4197 21.5807C30.0825 22.2377 30.6097 22.8289 31.0014 23.3545C31.8148 24.7013 32.2216 26.1301 32.2216 27.6411V27.9367C32.2216 28.6922 32.0559 29.6448 31.7245 30.7945C30.429 34.3091 27.5066 36.3293 22.9573 36.8548C22.8368 36.8877 18.9353 36.9205 11.2527 36.9534H0V33.8986H4.88069V6.20811H0V3.1533H10.1681H16.7209C19.5227 3.1533 21.5262 3.23542 22.7313 3.39965C23.9365 3.56389 25.1717 3.99091 26.4371 4.68071C29.3293 6.25739 30.7754 8.63883 30.7754 11.825ZM23.6804 11.6772C23.6804 10.3633 23.4544 9.29578 23.0025 8.47459C22.5506 7.6534 22.0987 7.11142 21.6467 6.84864C21.1948 6.58586 20.7128 6.4052 20.2006 6.30666C19.9897 6.24096 18.4683 6.20811 15.6363 6.20811H11.4787V18.1318H15.1844C17.685 18.0989 19.0708 18.0496 19.342 17.9839C22.2342 17.327 23.6804 15.2248 23.6804 11.6772ZM24.9005 27.4933C24.9005 23.7158 23.6201 21.4658 21.0593 20.7431C21.0291 20.7103 20.999 20.6939 20.9689 20.6939L16.2238 20.6446H11.4787V33.8986H15.9074H16.3141H18.3026C19.8692 33.8986 21.1346 33.685 22.0987 33.258C23.0628 32.831 23.8461 31.9113 24.4486 30.4988C24.7499 29.7105 24.9005 28.7086 24.9005 27.4933Z" fill="black"/>
<path d="M50.29 19.8563C50.29 19.4293 50.5009 19.1009 50.9227 18.8709H79.7097C80.1616 19.1337 80.3876 19.4622 80.3876 19.8563C80.3876 20.2177 80.1767 20.5297 79.7549 20.7925L65.384 20.8418H51.0131C50.5311 20.6775 50.29 20.3491 50.29 19.8563ZM50.29 29.415C50.29 28.9223 50.5311 28.5938 51.0131 28.4295H79.7549C80.1767 28.758 80.3876 29.0865 80.3876 29.415C80.3876 29.842 80.1616 30.1705 79.7097 30.4004H50.9227C50.5009 30.1705 50.29 29.842 50.29 29.415Z" fill="black"/>
<path d="M99.7207 24.6354C99.7207 22.3689 99.8713 20.2174 100.173 18.1808C100.474 16.1443 100.82 14.387 101.212 12.9088C101.604 11.4307 102.161 9.98539 102.884 8.57295C103.607 7.16051 104.18 6.06012 104.601 5.27177C105.023 4.48344 105.656 3.6294 106.499 2.70967C107.343 1.78994 107.84 1.23153 107.991 1.03445C108.141 0.837364 108.518 0.492462 109.121 -0.000247955H109.708H109.889C110.311 -0.000247955 110.521 0.147564 110.521 0.443192C110.521 0.541737 110.265 0.886635 109.753 1.47789C109.241 2.06915 108.623 2.9396 107.9 4.08926C107.177 5.23893 106.439 6.65137 105.686 8.32659C104.933 10.0018 104.3 12.2683 103.788 15.126C103.276 17.9838 103.02 21.1535 103.02 24.6354C103.02 28.1172 103.276 31.2706 103.788 34.0955C104.3 36.9203 104.918 39.2032 105.641 40.9442C106.364 42.6851 107.102 44.0975 107.855 45.1815C108.608 46.2655 109.241 47.1359 109.753 47.7929C110.265 48.4498 110.521 48.7947 110.521 48.8276C110.521 49.1232 110.296 49.271 109.844 49.271H109.708H109.121L107.855 48.0885C105.023 45.2964 102.959 41.8146 101.664 37.643C100.368 33.4714 99.7207 29.1355 99.7207 24.6354Z" fill="black"/>
<path d="M123.49 5.56759C122.677 5.56759 122.195 5.55116 122.044 5.51831C121.894 5.48547 121.818 5.30481 121.818 4.97633C121.818 4.08945 121.984 3.54747 122.315 3.35038C122.346 3.31753 124.304 3.30111 128.19 3.30111C135.993 3.30111 140.106 3.33396 140.528 3.39965C142.426 3.72813 144.007 4.46719 145.273 5.61686C146.538 6.76652 147.186 8.2775 147.216 10.1498C147.216 12.2521 146.342 14.1408 144.595 15.816C142.847 17.4912 140.844 18.6245 138.584 19.2157L138.132 19.3635C140.061 19.6592 141.642 20.4147 142.878 21.63C144.113 22.8454 144.745 24.3564 144.776 26.163C144.776 28.5608 143.691 30.8766 141.522 33.1102C139.353 35.3438 136.686 36.6085 133.523 36.9041C133.312 36.9369 130.134 36.9534 123.987 36.9534C117.962 36.9534 114.904 36.9205 114.814 36.8548C114.693 36.7563 114.633 36.6249 114.633 36.4607C114.633 36.2307 114.663 36.0008 114.723 35.7709C114.874 35.1468 115.024 34.8019 115.175 34.7362C115.296 34.7033 115.522 34.6869 115.853 34.6869H116.124C116.938 34.6869 117.841 34.6376 118.836 34.5391C119.257 34.4405 119.544 34.2435 119.694 33.9478C119.785 33.8164 120.869 29.2506 122.948 20.2504C125.027 11.2502 126.066 6.50374 126.066 6.01103C126.066 5.7811 125.208 5.63328 123.49 5.56759ZM142.38 10.1498C142.38 9.16439 142.154 8.24466 141.703 7.39062C141.251 6.53659 140.512 5.97818 139.488 5.7154C139.277 5.64971 137.891 5.60043 135.331 5.56759C134.728 5.56759 134.095 5.56759 133.432 5.56759C132.77 5.56759 132.242 5.58401 131.851 5.61686H131.263C130.811 5.64971 130.525 5.81394 130.405 6.10957C130.344 6.24096 129.862 8.21181 128.959 12.0221C128.959 12.1207 128.943 12.2192 128.913 12.3177L127.512 18.5259H131.173C133.613 18.5259 135.014 18.4931 135.376 18.4274C137.183 18.0989 138.795 17.1463 140.211 15.5696C141.627 13.993 142.35 12.1864 142.38 10.1498ZM139.94 25.6703C139.94 24.225 139.594 23.026 138.901 22.0735C138.208 21.1209 137.304 20.5625 136.189 20.3982C136.008 20.3654 134.758 20.349 132.438 20.349C128.883 20.349 127.091 20.3654 127.06 20.3982C127.06 20.4639 126.804 21.6629 126.292 23.995C125.78 26.3272 125.253 28.643 124.711 30.9423L123.897 34.3913C123.897 34.5227 124.078 34.5883 124.439 34.5883C124.801 34.5883 126.021 34.6212 128.1 34.6869C130.781 34.6869 132.227 34.6705 132.438 34.6376C134.306 34.4077 136.023 33.4551 137.59 31.7799C139.157 30.1047 139.94 28.0681 139.94 25.6703Z" fill="black"/>
<path d="M149.013 34.2764C149.162 33.301 149.737 32.1747 150.738 30.8974C151.739 29.6201 152.975 28.9699 154.444 28.9467C155.19 28.9467 155.872 29.1557 156.489 29.5737C157.107 29.9917 157.565 30.5142 157.863 31.1412C158.758 29.6782 159.833 28.9467 161.09 28.9467C161.878 28.9467 162.56 29.2021 163.135 29.713C163.71 30.2239 164.008 30.909 164.03 31.7683C164.03 32.4417 163.88 32.9875 163.582 33.4055C163.284 33.8235 162.997 34.079 162.72 34.1719C162.443 34.2648 162.198 34.3112 161.985 34.3112C161.58 34.3112 161.25 34.1835 160.994 33.928C160.739 33.6726 160.611 33.3358 160.611 32.9178C160.611 31.8496 161.143 31.118 162.208 30.7232C161.974 30.4213 161.548 30.2704 160.93 30.2704C160.653 30.2704 160.451 30.2936 160.323 30.34C159.514 30.7116 158.918 31.478 158.534 32.6391C157.256 37.7715 156.617 40.7673 156.617 41.6265C156.617 42.2768 156.787 42.7412 157.128 43.0199C157.469 43.2986 157.842 43.4379 158.247 43.4379C159.035 43.4379 159.812 43.0547 160.579 42.2884C161.346 41.522 161.868 40.5815 162.145 39.4668C162.208 39.2345 162.272 39.1068 162.336 39.0836C162.4 39.0604 162.571 39.0371 162.847 39.0139H162.975C163.295 39.0139 163.454 39.1068 163.454 39.2926C163.454 39.3158 163.433 39.4435 163.391 39.6758C163.05 40.9995 162.389 42.1723 161.41 43.1941C160.43 44.2159 159.29 44.7268 157.991 44.7268C156.5 44.7268 155.371 43.9953 154.604 42.5322C153.731 43.9721 152.73 44.692 151.601 44.692H151.409C150.365 44.692 149.62 44.3901 149.173 43.7863C148.725 43.1825 148.491 42.5438 148.47 41.8704C148.47 41.1272 148.672 40.5234 149.077 40.0589C149.481 39.5945 149.961 39.3623 150.515 39.3623C151.43 39.3623 151.888 39.8499 151.888 40.8253C151.888 41.2898 151.761 41.6962 151.505 42.0445C151.249 42.3929 151.004 42.6251 150.77 42.7412C150.536 42.8573 150.397 42.9154 150.355 42.9154L150.259 42.9502C150.259 42.9735 150.323 43.0199 150.451 43.0896C150.578 43.1592 150.749 43.2405 150.962 43.3334C151.175 43.4263 151.377 43.4611 151.569 43.4379C152.336 43.4379 152.996 42.9154 153.55 41.8704C153.742 41.4988 153.986 40.7092 154.285 39.5016C154.583 38.294 154.881 37.0399 155.179 35.7394C155.478 34.4389 155.648 33.6726 155.691 33.4403C155.797 32.8133 155.85 32.3605 155.85 32.0818C155.85 31.4315 155.691 30.9671 155.371 30.6884C155.052 30.4097 154.689 30.2704 154.285 30.2704C153.433 30.2704 152.634 30.6419 151.888 31.3851C151.143 32.1282 150.621 33.0804 150.323 34.2415C150.28 34.4506 150.227 34.5667 150.163 34.5899C150.099 34.6131 149.929 34.6363 149.652 34.6596H149.205C149.077 34.5202 149.013 34.3925 149.013 34.2764Z" fill="black"/>
<path d="M171.412 35.2293C171.412 35.2293 171.412 34.8187 171.412 33.9975C171.412 33.1763 171.653 32.4701 172.135 31.8788C172.617 31.2876 173.265 30.9919 174.078 30.9919C174.922 30.9919 175.675 31.4025 176.338 32.2237C177.001 33.0449 177.347 34.4902 177.377 36.5596C177.377 37.7092 177.242 38.8261 176.971 39.91C176.7 40.994 176.383 41.9301 176.022 42.7185C175.66 43.5068 175.268 44.1802 174.847 44.7386C174.425 45.297 174.063 45.7405 173.762 46.0689C173.461 46.3974 173.265 46.5452 173.175 46.5124C173.054 46.5124 172.858 46.3646 172.587 46.0689C172.316 45.7733 172.18 45.5598 172.18 45.4284C172.18 45.297 172.346 45.0342 172.677 44.6401C173.009 44.2459 173.385 43.7532 173.807 43.1619C174.229 42.5707 174.621 41.7495 174.982 40.6984C175.344 39.6472 175.585 38.4483 175.705 37.1016V36.5103L175.66 36.5596C175.6 36.5924 175.525 36.6253 175.434 36.6581C175.344 36.691 175.253 36.7402 175.163 36.8059C175.073 36.8716 174.937 36.9045 174.756 36.9045C174.576 36.9045 174.395 36.9209 174.214 36.9537C173.401 36.9537 172.738 36.6745 172.226 36.1161L171.412 35.2293Z" fill="black"/>
<path d="M198.423 5.56783C197.61 5.56783 197.127 5.55141 196.977 5.51856C196.826 5.48571 196.751 5.30505 196.751 4.97658C196.751 4.08969 196.917 3.54771 197.248 3.35062C197.278 3.31778 199.236 3.30135 203.123 3.30135C210.926 3.30135 215.038 3.3342 215.46 3.39989C217.358 3.72837 218.94 4.46744 220.205 5.6171C221.471 6.76676 222.118 8.27775 222.149 10.1501C222.149 12.2523 221.275 14.141 219.527 15.8162C217.78 17.4915 215.777 18.6247 213.517 19.216L213.065 19.3638C214.993 19.6594 216.575 20.4149 217.81 21.6303C219.045 22.8456 219.678 24.3566 219.708 26.1632C219.708 28.5611 218.624 30.8768 216.454 33.1105C214.285 35.3441 211.619 36.6087 208.455 36.9043C208.245 36.9372 205.066 36.9536 198.92 36.9536C192.895 36.9536 189.837 36.9208 189.746 36.8551C189.626 36.7565 189.565 36.6251 189.565 36.4609C189.565 36.231 189.596 36.001 189.656 35.7711C189.806 35.147 189.957 34.8021 190.108 34.7364C190.228 34.7036 190.454 34.6871 190.786 34.6871H191.057C191.87 34.6871 192.774 34.6379 193.768 34.5393C194.19 34.4408 194.476 34.2437 194.627 33.9481C194.717 33.8167 195.802 29.2509 197.881 20.2507C199.959 11.2504 200.999 6.50398 200.999 6.01127C200.999 5.78134 200.14 5.63353 198.423 5.56783ZM217.313 10.1501C217.313 9.16463 217.087 8.2449 216.635 7.39087C216.183 6.53683 215.445 5.97842 214.421 5.71564C214.21 5.64995 212.824 5.60068 210.263 5.56783C209.661 5.56783 209.028 5.56783 208.365 5.56783C207.702 5.56783 207.175 5.58425 206.783 5.6171H206.196C205.744 5.64995 205.458 5.81419 205.337 6.10981C205.277 6.2412 204.795 8.21205 203.891 12.0224C203.891 12.1209 203.876 12.2194 203.846 12.318L202.445 18.5262H206.106C208.546 18.5262 209.947 18.4933 210.308 18.4276C212.116 18.0991 213.728 17.1466 215.144 15.5699C216.56 13.9932 217.283 12.1866 217.313 10.1501ZM214.873 25.6705C214.873 24.2252 214.526 23.0263 213.833 22.0737C213.14 21.1211 212.237 20.5627 211.122 20.3985C210.941 20.3656 209.691 20.3492 207.371 20.3492C203.816 20.3492 202.023 20.3656 201.993 20.3985C201.993 20.4642 201.737 21.6631 201.225 23.9953C200.713 26.3274 200.185 28.6432 199.643 30.9425L198.83 34.3915C198.83 34.5229 199.01 34.5886 199.372 34.5886C199.734 34.5886 200.954 34.6214 203.033 34.6871C205.714 34.6871 207.16 34.6707 207.371 34.6379C209.239 34.4079 210.956 33.4554 212.523 31.7801C214.089 30.1049 214.873 28.0684 214.873 25.6705Z" fill="black"/>
<path d="M222.954 34.3464C222.954 34.0213 223.114 33.4639 223.433 32.6743C223.753 31.8847 224.264 31.0603 224.967 30.2011C225.67 29.3418 226.458 28.9238 227.331 28.947C228.205 28.947 228.908 29.2141 229.44 29.7482C229.973 30.2823 230.249 31.0255 230.271 31.9776C230.228 32.4189 230.196 32.6627 230.175 32.7092C230.175 32.7788 230.004 33.313 229.664 34.3116C229.323 35.3102 228.971 36.4365 228.609 37.6905C228.247 38.9446 228.077 39.9432 228.098 40.6863C228.098 41.6849 228.247 42.3816 228.545 42.7764C228.844 43.1712 229.291 43.3802 229.887 43.4034C230.377 43.4034 230.835 43.2757 231.261 43.0203C231.687 42.7648 232.017 42.4977 232.252 42.2191C232.486 41.9404 232.774 41.5572 233.114 41.0695C233.114 41.0463 233.168 40.8141 233.274 40.3728C233.381 39.9316 233.53 39.2465 233.721 38.3176C233.913 37.3886 234.115 36.5294 234.328 35.7398C235.138 32.2563 235.585 30.4333 235.67 30.2707C235.947 29.6437 236.405 29.3302 237.044 29.3302C237.321 29.3302 237.545 29.4115 237.715 29.574C237.886 29.7366 238.003 29.8759 238.067 29.9921C238.131 30.1082 238.152 30.2127 238.131 30.3056C238.131 30.6075 237.609 33.0459 236.565 37.6209C235.521 42.1958 234.925 44.7039 234.776 45.1452C234.179 47.0727 233.146 48.6054 231.677 49.7434C230.207 50.8813 228.737 51.4619 227.267 51.4851C226.309 51.4851 225.468 51.2297 224.743 50.7187C224.019 50.2078 223.657 49.4415 223.657 48.4196C223.657 47.9087 223.732 47.4791 223.881 47.1308C224.03 46.7824 224.232 46.527 224.488 46.3644C224.743 46.2018 224.956 46.0857 225.127 46.016C225.297 45.9464 225.478 45.9115 225.67 45.9115C226.607 45.9115 227.076 46.3992 227.076 47.3746C227.076 47.8391 226.948 48.2455 226.692 48.5938C226.437 48.9422 226.192 49.1744 225.957 49.2905C225.723 49.4066 225.585 49.4647 225.542 49.4647L225.446 49.4995C225.489 49.6156 225.691 49.755 226.053 49.9175C226.415 50.0801 226.778 50.1614 227.14 50.1614H227.395C227.757 50.1614 228.034 50.1382 228.226 50.0917C228.929 49.8827 229.578 49.4415 230.175 48.768C230.771 48.0945 231.229 47.3746 231.549 46.6082C231.868 45.8419 232.113 45.1916 232.284 44.6575C232.454 44.1234 232.539 43.775 232.539 43.6124L232.348 43.7518C232.22 43.8447 232.017 43.9724 231.74 44.135C231.464 44.2975 231.187 44.4369 230.91 44.553C230.484 44.6691 230.068 44.7272 229.664 44.7272C228.684 44.7272 227.821 44.4717 227.076 43.9608C226.33 43.4499 225.84 42.6255 225.606 41.4875C225.585 41.325 225.574 40.965 225.574 40.4077C225.574 39.0839 225.947 37.3538 226.692 35.2173C227.438 33.0807 227.811 31.7222 227.811 31.1416C227.811 31.1184 227.811 31.0952 227.811 31.0719C227.811 30.8629 227.811 30.7236 227.811 30.6539C227.811 30.5842 227.768 30.503 227.683 30.4101C227.598 30.3172 227.48 30.2707 227.331 30.2707H227.204C226.714 30.2707 226.266 30.4914 225.862 30.9326C225.457 31.3738 225.137 31.8499 224.903 32.3608C224.669 32.8717 224.488 33.3594 224.36 33.8239C224.232 34.2883 224.147 34.5438 224.104 34.5902C224.062 34.6367 223.891 34.6599 223.593 34.6599H223.146C223.018 34.5206 222.954 34.4161 222.954 34.3464Z" fill="black"/>
<path d="M243.729 35.229C243.729 35.229 243.729 34.8184 243.729 33.9972C243.729 33.176 243.97 32.4698 244.452 31.8786C244.934 31.2873 245.581 30.9917 246.395 30.9917C247.238 30.9917 247.992 31.4023 248.654 32.2235C249.317 33.0446 249.664 34.4899 249.694 36.5593C249.694 37.709 249.558 38.8258 249.287 39.9098C249.016 40.9937 248.7 41.9299 248.338 42.7182C247.977 43.5066 247.585 44.18 247.163 44.7384C246.741 45.2968 246.38 45.7402 246.078 46.0687C245.777 46.3972 245.581 46.545 245.491 46.5121C245.37 46.5121 245.175 46.3643 244.903 46.0687C244.632 45.7731 244.497 45.5595 244.497 45.4282C244.497 45.2968 244.662 45.034 244.994 44.6398C245.325 44.2456 245.702 43.7529 246.124 43.1617C246.545 42.5704 246.937 41.7492 247.299 40.6981C247.66 39.647 247.901 38.4481 248.022 37.1013V36.5101L247.977 36.5593C247.916 36.5922 247.841 36.625 247.751 36.6579C247.66 36.6907 247.57 36.74 247.479 36.8057C247.389 36.8714 247.253 36.9042 247.073 36.9042C246.892 36.9042 246.711 36.9207 246.53 36.9535C245.717 36.9535 245.054 36.6743 244.542 36.1159L243.729 35.229Z" fill="black"/>
<path d="M270.734 5.56808C269.92 5.56808 269.438 5.55165 269.287 5.5188C269.137 5.48596 269.061 5.30529 269.061 4.97682C269.061 4.08994 269.227 3.54795 269.559 3.35087C269.589 3.31802 271.547 3.3016 275.433 3.3016C283.237 3.3016 287.349 3.33445 287.771 3.40014C289.669 3.72861 291.25 4.46768 292.516 5.61735C293.781 6.76701 294.429 8.27799 294.459 10.1503C294.459 12.2525 293.585 14.1413 291.838 15.8165C290.091 17.4917 288.087 18.625 285.827 19.2162L285.376 19.364C287.304 19.6597 288.885 20.4151 290.121 21.6305C291.356 22.8459 291.989 24.3568 292.019 26.1635C292.019 28.5613 290.934 30.8771 288.765 33.1107C286.596 35.3443 283.929 36.609 280.766 36.9046C280.555 36.9374 277.377 36.9539 271.231 36.9539C265.205 36.9539 262.147 36.921 262.057 36.8553C261.936 36.7568 261.876 36.6254 261.876 36.4611C261.876 36.2312 261.906 36.0013 261.966 35.7713C262.117 35.1472 262.268 34.8023 262.418 34.7367C262.539 34.7038 262.765 34.6874 263.096 34.6874H263.367C264.181 34.6874 265.085 34.6381 266.079 34.5396C266.501 34.441 266.787 34.2439 266.937 33.9483C267.028 33.8169 268.112 29.2511 270.191 20.2509C272.27 11.2507 273.309 6.50423 273.309 6.01152C273.309 5.78158 272.451 5.63377 270.734 5.56808ZM289.624 10.1503C289.624 9.16488 289.398 8.24515 288.946 7.39111C288.494 6.53708 287.756 5.97867 286.731 5.71589C286.52 5.65019 285.135 5.60092 282.574 5.56808C281.971 5.56808 281.338 5.56808 280.676 5.56808C280.013 5.56808 279.486 5.5845 279.094 5.61735H278.506C278.055 5.65019 277.768 5.81443 277.648 6.11006C277.588 6.24145 277.106 8.2123 276.202 12.0226C276.202 12.1212 276.187 12.2197 276.157 12.3182L274.756 18.5264H278.416C280.856 18.5264 282.257 18.4936 282.619 18.4279C284.427 18.0994 286.038 17.1468 287.454 15.5701C288.87 13.9935 289.593 12.1868 289.624 10.1503ZM287.183 25.6707C287.183 24.2255 286.837 23.0265 286.144 22.0739C285.451 21.1214 284.547 20.563 283.432 20.3987C283.252 20.3659 282.001 20.3494 279.681 20.3494C276.126 20.3494 274.334 20.3659 274.304 20.3987C274.304 20.4644 274.048 21.6633 273.535 23.9955C273.023 26.3277 272.496 28.6434 271.954 30.9428L271.14 34.3918C271.14 34.5231 271.321 34.5888 271.683 34.5888C272.044 34.5888 273.264 34.6217 275.343 34.6874C278.024 34.6874 279.471 34.671 279.681 34.6381C281.549 34.4082 283.267 33.4556 284.833 31.7804C286.4 30.1052 287.183 28.0686 287.183 25.6707Z" fill="black"/>
<path d="M305.681 32.57C305.468 32.57 304.904 32.4422 303.988 32.1868C303.072 31.9313 302.401 31.8036 301.975 31.8036C301.549 31.8036 301.187 31.85 300.889 31.9429C300.591 32.0358 300.346 32.1519 300.154 32.2913C299.962 32.4306 299.834 32.5583 299.771 32.6745C299.707 32.7906 299.632 32.9183 299.547 33.0576L299.483 33.197C299.419 33.2667 299.259 33.3015 299.004 33.3015C298.556 33.3015 298.333 33.2086 298.333 33.0228C298.333 32.9067 298.365 32.7441 298.429 32.5351C298.706 31.6294 299.164 30.8514 299.803 30.2012C300.442 29.5509 301.144 29.1562 301.911 29.0168C302.167 28.9704 302.348 28.9471 302.454 28.9471C302.987 28.9471 303.466 29.1445 303.892 29.5393C304.318 29.9341 304.723 30.3173 305.106 30.6889C305.49 31.0605 305.894 31.2579 306.32 31.2811C306.789 31.2811 307.258 30.8979 307.726 30.1315C308.195 29.3652 308.44 28.982 308.461 28.982C308.482 28.9588 308.642 28.9471 308.94 28.9471H309.356C309.484 29.0865 309.547 29.1794 309.547 29.2258C309.547 29.3187 309.494 29.4813 309.388 29.7135C309.281 29.9457 309.132 30.1896 308.94 30.445C308.749 30.7005 308.568 30.9559 308.397 31.2114C308.227 31.4669 308.078 31.6875 307.95 31.8733L307.726 32.1868C306.81 33.3712 305.362 34.9387 303.381 36.8895C301.4 38.8402 300.175 40.0943 299.707 40.6516L299.323 41.0696L299.803 41.1045C300.271 41.1045 300.953 41.2322 301.847 41.4877C302.742 41.7431 303.413 41.8708 303.86 41.8708C304.67 41.8708 305.415 41.6502 306.097 41.209C306.778 40.7677 307.226 40.1872 307.439 39.4672C307.524 39.2582 307.598 39.1305 307.662 39.0841C307.726 39.0376 307.886 39.0144 308.142 39.0144C308.546 39.0144 308.749 39.1305 308.749 39.3627C308.749 39.4789 308.738 39.5834 308.717 39.6763C308.355 41.1161 307.652 42.3121 306.608 43.2642C305.564 44.2164 304.521 44.7041 303.477 44.7273C302.923 44.7273 302.433 44.5299 302.007 44.1351C301.581 43.7403 301.166 43.3455 300.761 42.9507C300.356 42.5559 299.952 42.3585 299.547 42.3585C298.61 42.3585 297.768 43.0552 297.023 44.4486C296.895 44.6344 296.714 44.7273 296.48 44.7273H296.32H295.905C295.777 44.588 295.713 44.4835 295.713 44.4138C295.713 44.0654 296.331 43.0668 297.566 41.418C298.397 40.3729 299.803 38.8634 301.783 36.8895C303.764 34.9155 304.989 33.6615 305.458 33.1273C305.713 32.7557 305.788 32.57 305.681 32.57Z" fill="black"/>
<path d="M314.426 0.0490227L314.607 -0.000247955C314.758 -0.000247955 314.908 -0.000247955 315.059 -0.000247955H315.601L316.866 1.18226C319.698 3.9743 321.762 7.45613 323.058 11.6278C324.353 15.7994 325.001 20.1353 325.001 24.6354C325.001 26.869 324.85 29.0205 324.549 31.0899C324.248 33.1593 323.901 34.9166 323.51 36.3619C323.118 37.8072 322.561 39.2525 321.838 40.6978C321.115 42.1431 320.542 43.2435 320.12 43.999C319.698 44.7545 319.081 45.5921 318.267 46.5118C317.454 47.4315 316.972 47.9735 316.821 48.1378C316.671 48.302 316.324 48.614 315.782 49.0739C315.692 49.1725 315.631 49.2381 315.601 49.271H315.059C314.818 49.271 314.652 49.271 314.562 49.271C314.471 49.271 314.396 49.2217 314.336 49.1232C314.276 49.0246 314.23 48.8768 314.2 48.6797C314.23 48.6469 314.396 48.4334 314.697 48.0392C319.367 42.7508 321.702 34.9495 321.702 24.6354C321.702 14.3213 319.367 6.51998 314.697 1.23153C314.396 0.837364 314.23 0.623856 314.2 0.591007C314.2 0.328228 314.276 0.147564 314.426 0.0490227Z" fill="black"/>
</svg>
