<svg width="615" height="55" viewBox="0 0 615 55" fill="none" xmlns="http://www.w3.org/2000/svg">
<path d="M14.0965 41.2982C13.4357 41.1881 11.0129 41.1331 6.82797 41.1331C2.93676 41.1331 0.825965 41.1881 0.495579 41.2982H0V37.8843H2.86334C4.77224 37.8843 5.72669 37.8476 5.72669 37.7741C14.6838 15.0876 19.3276 3.61591 19.658 3.35894C19.8782 3.02855 20.5573 2.86336 21.6953 2.86336C22.7599 2.86336 23.439 3.02855 23.7327 3.35894C23.8796 3.46907 25.1093 6.38748 27.422 12.1142C29.7347 17.8409 32.0291 23.5675 34.3051 29.2942L37.664 37.7741C37.664 37.8476 38.6184 37.8843 40.5273 37.8843H43.3907V41.2982H42.785C42.0141 41.1881 39.0957 41.1331 34.0297 41.1331C28.56 41.1331 25.3846 41.1881 24.5036 41.2982H23.7878V37.8843H26.2657C27.8809 37.8843 28.6885 37.8659 28.6885 37.8292L26.2657 31.662H12.2243L11.0129 34.6905C10.2053 36.7096 9.78309 37.7374 9.74638 37.7741C9.74638 37.8476 10.554 37.8843 12.1692 37.8843H14.6471V41.2982H14.0965ZM19.2725 28.248L24.8891 28.1929L22.0257 21.1998C20.1902 16.5744 19.2358 14.2617 19.1624 14.2617C15.4547 23.5125 13.6009 28.1746 13.6009 28.248H19.2725Z" fill="black"/>
<path d="M92.5736 39.7014C92.5736 40.4355 92.1881 40.8026 91.4172 40.8026C91.2337 40.8026 90.8299 40.509 90.2058 39.9216C89.5818 39.3343 87.8564 37.6273 85.0298 34.8006L79.3031 29.0739L73.5213 34.8557C69.6301 38.6735 67.6295 40.6191 67.5193 40.6925C67.3725 40.7659 67.244 40.8026 67.1339 40.8026C66.8402 40.8026 66.5832 40.6925 66.363 40.4723C66.1427 40.252 66.0142 39.995 65.9775 39.7014C65.9775 39.4444 66.2345 39.0406 66.7484 38.4899C67.2624 37.9393 68.9877 36.1956 71.9245 33.2588L77.6512 27.5321L71.9245 21.8055C68.951 18.832 67.2257 17.0883 66.7484 16.5743C66.2712 16.0604 66.0142 15.6566 65.9775 15.3629C65.9775 15.0325 66.0877 14.7756 66.3079 14.592C66.5282 14.4085 66.8035 14.3167 67.1339 14.3167C67.3174 14.3167 67.4459 14.3351 67.5193 14.3718C67.6295 14.4452 69.6301 16.3908 73.5213 20.2086L79.3031 25.9903L85.0298 20.2637C87.8564 17.437 89.5818 15.73 90.2058 15.1427C90.8299 14.5553 91.2337 14.2616 91.4172 14.2616C92.1881 14.2616 92.5736 14.6287 92.5736 15.3629C92.5736 15.6199 92.3901 15.9503 92.023 16.3541C91.6559 16.7579 89.8571 18.5567 86.6267 21.7504L80.9 27.5321L86.6267 33.3139C89.7103 36.3975 91.4723 38.1779 91.9128 38.6551C92.3533 39.1324 92.5736 39.4811 92.5736 39.7014Z" fill="black"/>
<path d="M152.603 13.2155C152.603 14.4636 152.31 15.6016 151.722 16.6294C151.135 17.6573 150.419 18.4649 149.575 19.0523C148.73 19.6396 147.886 20.1352 147.042 20.539C146.197 20.9428 145.482 21.2181 144.894 21.365L144.013 21.5302L145.059 21.6954C145.757 21.8055 146.656 22.0625 147.758 22.4663C148.859 22.8701 149.923 23.4207 150.951 24.1182C151.759 24.8524 152.401 25.5131 152.879 26.1005C153.87 27.6056 154.365 29.2025 154.365 30.8911V31.2215C154.365 32.0658 154.163 33.1304 153.76 34.4152C152.181 38.3431 148.62 40.6008 143.077 41.1881C142.93 41.2248 138.176 41.2615 128.816 41.2982H115.104V37.8843H121.051V6.93812H115.104V3.52413H127.494H135.478C138.892 3.52413 141.333 3.61591 142.802 3.79945C144.27 3.983 145.775 4.46022 147.317 5.23112C150.841 6.99318 152.603 9.65462 152.603 13.2155ZM143.958 13.0503C143.958 11.5819 143.683 10.3888 143.132 9.47108C142.582 8.55334 142.031 7.94763 141.48 7.65395C140.93 7.36028 140.342 7.15837 139.718 7.04825C139.461 6.97483 137.607 6.93812 134.157 6.93812H129.091V20.2637H133.606C136.653 20.227 138.342 20.1719 138.672 20.0985C142.196 19.3643 143.958 17.0149 143.958 13.0503ZM145.445 30.7259C145.445 26.5043 143.885 23.9897 140.764 23.1821C140.728 23.1454 140.691 23.127 140.654 23.127L134.873 23.072H129.091V37.8843H134.487H134.983H137.406C139.314 37.8843 140.856 37.6456 142.031 37.1684C143.206 36.6912 144.16 35.6633 144.894 34.0848C145.261 33.2038 145.445 32.0842 145.445 30.7259Z" fill="black"/>
<path d="M176.383 22.1909C176.383 21.7137 176.64 21.3466 177.154 21.0897H212.23C212.78 21.3833 213.056 21.7504 213.056 22.1909C213.056 22.5947 212.799 22.9435 212.285 23.2372L194.774 23.2922H177.264C176.676 23.1087 176.383 22.7416 176.383 22.1909ZM176.383 32.8734C176.383 32.3228 176.676 31.9557 177.264 31.7721H212.285C212.799 32.1392 213.056 32.5063 213.056 32.8734C213.056 33.3506 212.78 33.7177 212.23 33.9747H177.154C176.64 33.7177 176.383 33.3506 176.383 32.8734Z" fill="black"/>
<path d="M239.09 55.0092H238.979C238.539 55.0092 238.209 54.7523 237.988 54.2383V27.4771L238.043 0.715839C238.41 0.238613 238.759 0 239.09 0C239.567 0 239.934 0.275322 240.191 0.825966V54.2383C239.897 54.7523 239.567 55.0092 239.2 55.0092H239.09Z" fill="black"/>
<path d="M263.042 41.2982C262.381 41.1881 259.958 41.1331 255.773 41.1331C251.882 41.1331 249.771 41.1881 249.441 41.2982H248.945V37.8843H251.809C253.718 37.8843 254.672 37.8476 254.672 37.7741C263.629 15.0876 268.273 3.61591 268.603 3.35894C268.824 3.02855 269.503 2.86336 270.641 2.86336C271.705 2.86336 272.384 3.02855 272.678 3.35894C272.825 3.46907 274.055 6.38748 276.367 12.1142C278.68 17.8409 280.974 23.5675 283.25 29.2942L286.609 37.7741C286.609 37.8476 287.564 37.8843 289.473 37.8843H292.336V41.2982H291.73C290.959 41.1881 288.041 41.1331 282.975 41.1331C277.505 41.1331 274.33 41.1881 273.449 41.2982H272.733V37.8843H275.211C276.826 37.8843 277.634 37.8659 277.634 37.8292L275.211 31.662H261.17L259.958 34.6905C259.151 36.7096 258.728 37.7374 258.692 37.7741C258.692 37.8476 259.499 37.8843 261.115 37.8843H263.592V41.2982H263.042ZM268.218 28.248L273.834 28.1929L270.971 21.1998C269.136 16.5744 268.181 14.2617 268.108 14.2617C264.4 23.5125 262.546 28.1746 262.546 28.248H268.218Z" fill="black"/>
<path d="M302.247 55.0092H302.137C301.696 55.0092 301.366 54.7523 301.146 54.2383V27.4771L301.201 0.715839C301.568 0.238613 301.916 0 302.247 0C302.724 0 303.091 0.275322 303.348 0.825966V54.2383C303.054 54.7523 302.724 55.0092 302.357 55.0092H302.247Z" fill="black"/>
<path d="M342.043 55.0092H341.933C341.492 55.0092 341.162 54.7523 340.941 54.2383V27.4771L340.996 0.715839C341.364 0.238613 341.712 0 342.043 0C342.52 0 342.887 0.275322 343.144 0.825966V54.2383C342.85 54.7523 342.52 55.0092 342.153 55.0092H342.043Z" fill="black"/>
<path d="M389.343 13.2155C389.343 14.4636 389.049 15.6016 388.462 16.6294C387.874 17.6573 387.158 18.4649 386.314 19.0523C385.47 19.6396 384.625 20.1352 383.781 20.539C382.937 20.9428 382.221 21.2181 381.634 21.365L380.753 21.5302L381.799 21.6954C382.496 21.8055 383.396 22.0625 384.497 22.4663C385.598 22.8701 386.663 23.4207 387.691 24.1182C388.498 24.8524 389.141 25.5131 389.618 26.1005C390.609 27.6056 391.105 29.2025 391.105 30.8911V31.2215C391.105 32.0658 390.903 33.1304 390.499 34.4152C388.92 38.3431 385.36 40.6008 379.816 41.1881C379.67 41.2248 374.916 41.2615 365.555 41.2982H351.844V37.8843H357.791V6.93812H351.844V3.52413H364.233H372.218C375.632 3.52413 378.073 3.61591 379.541 3.79945C381.009 3.983 382.515 4.46022 384.056 5.23112C387.58 6.99318 389.343 9.65462 389.343 13.2155ZM380.697 13.0503C380.697 11.5819 380.422 10.3888 379.871 9.47108C379.321 8.55334 378.77 7.94763 378.22 7.65395C377.669 7.36028 377.082 7.15837 376.457 7.04825C376.201 6.97483 374.347 6.93812 370.896 6.93812H365.83V20.2637H370.345C373.392 20.227 375.081 20.1719 375.411 20.0985C378.935 19.3643 380.697 17.0149 380.697 13.0503ZM382.184 30.7259C382.184 26.5043 380.624 23.9897 377.504 23.1821C377.467 23.1454 377.43 23.127 377.394 23.127L371.612 23.072H365.83V37.8843H371.226H371.722H374.145C376.054 37.8843 377.595 37.6456 378.77 37.1684C379.945 36.6912 380.899 35.6633 381.634 34.0848C382.001 33.2038 382.184 32.0842 382.184 30.7259Z" fill="black"/>
<path d="M402.395 55.0092H402.285C401.845 55.0092 401.514 54.7523 401.294 54.2383V27.4771L401.349 0.715839C401.716 0.238613 402.065 0 402.395 0C402.872 0 403.24 0.275322 403.497 0.825966V54.2383C403.203 54.7523 402.872 55.0092 402.505 55.0092H402.395Z" fill="black"/>
<path d="M450.774 23.8979C450.774 22.4295 450.278 21.1631 449.287 20.0985C448.296 19.0339 446.864 18.5016 444.992 18.5016C443.67 18.5016 442.532 18.7402 441.578 19.2175C440.477 19.9149 439.926 20.8694 439.926 22.0808C439.889 22.2644 439.889 22.503 439.926 22.7966C439.963 23.0903 440.256 23.5308 440.807 24.1182C441.358 24.7055 442.147 25.1644 443.175 25.4948C443.835 25.6783 444.643 25.8435 445.597 25.9904C446.552 26.1372 447.36 26.3024 448.02 26.486C448.681 26.6695 449.268 26.9081 449.782 27.2018C450.406 27.4955 451.012 27.8626 451.599 28.3031C452.187 28.7436 452.774 29.4961 453.362 30.5607C453.949 31.6253 454.261 32.7633 454.298 33.9747C454.298 36.2507 453.6 38.1229 452.205 39.5913C450.81 41.0596 448.553 41.8122 445.432 41.8489H444.992C443.083 41.8489 441.321 41.1881 439.706 39.8666L439.265 40.252L438.77 40.7476C438.549 40.9679 438.329 41.1698 438.109 41.3533L437.503 41.904H437.063H436.842C436.732 41.904 436.567 41.7938 436.347 41.5736V37.2235V34.0298C436.347 33.2589 436.383 32.8 436.457 32.6532C436.53 32.5063 436.714 32.4145 437.007 32.3778H437.503C437.944 32.3778 438.237 32.4513 438.384 32.5981C438.531 32.7449 438.623 32.9652 438.659 33.2589C438.696 33.5525 438.825 34.0481 439.045 34.7456C439.265 35.4431 439.614 36.214 440.091 37.0583C441.376 38.9305 443.156 39.8666 445.432 39.8666C448.993 39.8666 450.774 38.4349 450.774 35.5716C450.774 34.507 450.443 33.6443 449.782 32.9835C449.048 32.1025 447.525 31.4417 445.212 31.0012C442.899 30.5607 441.376 30.1386 440.642 29.7347C439.32 29.1107 438.274 28.2664 437.503 27.2018C436.732 26.1372 436.347 24.9992 436.347 23.7878C436.347 22.3561 436.659 21.1447 437.283 20.1536C437.907 19.1624 438.696 18.4282 439.651 17.951C440.605 17.4738 441.523 17.1434 442.404 16.9598C443.285 16.7763 444.092 16.6845 444.827 16.6845H445.432C446.901 16.6845 448.186 16.9598 449.287 17.5105L450.113 17.951L450.608 17.5655C450.975 17.2351 451.379 16.9231 451.82 16.6294H452.26H452.481C452.591 16.6294 452.756 16.7396 452.976 16.9598V24.2283L452.646 24.5587H451.104C450.884 24.3384 450.774 24.1182 450.774 23.8979Z" fill="black"/>
<path d="M460.024 7.76409C460.024 6.73622 460.354 5.92861 461.015 5.34126C461.676 4.7539 462.484 4.46023 463.438 4.46023C464.282 4.53365 465.017 4.84568 465.641 5.39632C466.265 5.94696 466.577 6.73622 466.577 7.76409C466.577 8.86537 466.265 9.69134 465.641 10.242C465.017 10.7926 464.246 11.0679 463.328 11.0679C462.41 11.0679 461.639 10.7926 461.015 10.242C460.391 9.69134 460.061 8.86537 460.024 7.76409ZM469.825 41.2982C469.275 41.1881 467.366 41.1331 464.099 41.1331C463.695 41.1331 463.016 41.1331 462.061 41.1331C461.107 41.1331 460.189 41.1698 459.308 41.2432L458.097 41.2982H457.656V38.7653H458.537C459.565 38.7653 460.465 38.7102 461.235 38.6001C461.566 38.4533 461.768 38.2514 461.841 37.9944C461.915 37.7374 461.951 36.9665 461.951 35.6817V30.0101V25.1644C461.951 23.2555 461.915 22.0441 461.841 21.5302C461.768 21.0162 461.511 20.6675 461.07 20.4839C460.556 20.227 459.694 20.0985 458.482 20.0985H457.877V18.832C457.877 17.9877 457.913 17.5655 457.987 17.5655L458.537 17.5105C458.904 17.4738 459.418 17.437 460.079 17.4003C460.74 17.3636 461.401 17.3269 462.061 17.2902C462.685 17.2535 463.346 17.2168 464.044 17.1801C464.741 17.1434 465.273 17.0883 465.641 17.0149C466.008 16.9415 466.21 16.9231 466.246 16.9598H466.411V37.8843C466.595 38.2514 466.815 38.4716 467.072 38.545C467.329 38.6185 467.972 38.6919 468.999 38.7653H470.266V41.2982H469.825Z" fill="black"/>
<path d="M473.791 38.7653H474.562C475.994 38.7653 476.856 38.5083 477.15 37.9944V37.5539C477.15 37.2235 477.15 36.8013 477.15 36.2874C477.15 35.7735 477.15 35.2045 477.15 34.5804C477.15 33.9563 477.168 33.2405 477.205 32.4329C477.242 31.6253 477.242 30.8544 477.205 30.1202C477.205 28.9822 477.205 27.7708 477.205 26.486C477.205 25.2011 477.187 24.1182 477.15 23.2372V21.9707C477.04 21.2732 476.783 20.8143 476.379 20.5941C475.975 20.3738 475.149 20.2086 473.901 20.0985H472.91V18.832C472.91 17.9877 472.947 17.5655 473.02 17.5655L473.571 17.5105C473.938 17.4738 474.452 17.437 475.113 17.4003C475.774 17.3636 476.453 17.3269 477.15 17.2902C477.774 17.2535 478.435 17.2168 479.132 17.1801C479.83 17.1434 480.362 17.0883 480.729 17.0149C481.096 16.9415 481.298 16.9231 481.335 16.9598H481.5V19.1624C481.5 20.5574 481.519 21.2548 481.555 21.2548C481.592 21.2548 481.684 21.1631 481.831 20.9795C481.977 20.796 482.198 20.5207 482.491 20.1536C482.785 19.7865 483.134 19.4561 483.538 19.1624C483.941 18.8687 484.474 18.52 485.134 18.1162C485.795 17.7124 486.493 17.4187 487.227 17.2351C487.961 17.0516 488.897 16.9598 490.035 16.9598C494.22 17.1067 496.551 19.1808 497.028 23.1821C497.065 23.4391 497.083 25.9904 497.083 30.836V35.5716C497.083 36.9665 497.12 37.7925 497.194 38.0495C497.267 38.3064 497.469 38.49 497.799 38.6001C498.57 38.7102 499.47 38.7653 500.497 38.7653H501.378V41.2982H500.938L499.616 41.2432C498.772 41.2065 497.854 41.1881 496.863 41.1881C495.872 41.1881 495.174 41.1698 494.771 41.1331C490.99 41.1331 488.934 41.1881 488.603 41.2982H488.163V38.7653H489.044C491.283 38.7653 492.403 38.4716 492.403 37.8843C492.44 37.8108 492.458 35.2779 492.458 30.2854C492.421 25.3296 492.385 22.7049 492.348 22.4112C492.128 21.3833 491.761 20.6124 491.247 20.0985C490.733 19.5846 490.292 19.2725 489.925 19.1624C489.558 19.0523 489.081 19.0156 488.493 19.0523C486.841 19.0523 485.391 19.6763 484.143 20.9245C483.152 21.9156 482.528 22.9251 482.271 23.953C482.014 24.9809 481.867 26.5043 481.831 28.5233V32.0474V35.3513C481.831 36.4526 481.849 37.1868 481.886 37.5539C481.922 37.921 481.977 38.1596 482.051 38.2697C482.124 38.3798 482.289 38.49 482.546 38.6001C483.317 38.7102 484.217 38.7653 485.245 38.7653H486.126V41.2982H485.685L484.419 41.2432C483.538 41.2065 482.601 41.1881 481.61 41.1881C480.619 41.1881 479.922 41.1698 479.518 41.1331C475.737 41.1331 473.681 41.1881 473.351 41.2982H472.91V38.7653H473.791Z" fill="black"/>
<path d="M513.254 30.2854C513.254 26.541 513.97 22.5947 515.401 18.4465C516.833 14.2984 518.779 10.7192 521.238 7.709C523.698 4.69882 526.249 2.97347 528.892 2.53296C528.929 2.53296 529.076 2.53296 529.333 2.53296C529.59 2.53296 529.81 2.5146 529.993 2.47789C531.976 2.62473 533.518 3.52412 534.619 5.17604C536.051 7.37862 536.766 10.3337 536.766 14.0414C536.766 18.263 535.94 22.558 534.288 26.9264C532.637 31.2949 530.526 34.8741 527.956 37.664C525.386 40.4539 522.927 41.8489 520.577 41.8489H520.192C518.87 41.8489 517.732 41.4818 516.778 40.7476C515.824 40.0134 515.108 39.0406 514.631 37.8292C514.153 36.6178 513.805 35.388 513.584 34.1399C513.364 32.8917 513.254 31.6069 513.254 30.2854ZM532.416 10.1318C532.416 6.38746 531.443 4.51527 529.498 4.51527C528.176 4.51527 526.891 5.34124 525.643 6.99317C524.395 8.6451 523.367 10.5173 522.56 12.6097C521.752 14.7022 521.128 16.5376 520.688 18.1162C520.247 19.6947 520.008 20.6124 519.972 20.8694C521.771 20.9061 523.551 20.9244 525.313 20.9244L530.654 20.8694C530.691 20.8327 530.838 20.227 531.095 19.0523C531.352 17.8775 531.645 16.4092 531.976 14.6471C532.306 12.885 532.453 11.38 532.416 10.1318ZM517.549 34.0297C517.549 37.921 518.522 39.8666 520.467 39.8666C521.018 39.8666 521.605 39.683 522.229 39.3159C522.853 38.9488 523.606 38.2513 524.487 37.2235C525.368 36.1956 526.249 34.5987 527.13 32.4329C528.011 30.267 528.892 27.5872 529.773 24.3935L530.049 23.4574H519.311C519.311 23.5675 519.146 24.265 518.815 25.5498C518.485 26.8347 518.191 28.2663 517.934 29.8449C517.677 31.4234 517.549 32.8183 517.549 34.0297Z" fill="black"/>
<path d="M565.16 22.0808C565.16 20.2453 565.95 18.832 567.528 17.8408C569.107 16.8497 571.823 16.3541 575.678 16.3541C579.018 16.3541 581.716 16.9048 583.772 18.006C585.828 19.1073 587.131 20.6124 587.682 22.5213C587.865 23.0352 587.957 23.6042 587.957 24.2283C587.957 24.8524 587.975 26.9448 588.012 30.5056V37.0583C588.526 37.5722 589.444 37.8475 590.765 37.8843C591.5 37.8843 591.94 37.976 592.087 38.1596C592.234 38.3431 592.326 38.8204 592.362 39.5913C592.362 40.3989 592.252 40.8761 592.032 41.0229C591.812 41.1698 591.114 41.2615 589.939 41.2982H589.003H588.122C584.231 41.2982 582.139 40.2704 581.845 38.2146L581.239 38.7653C579.184 40.6742 576.504 41.6286 573.2 41.6286C570.263 41.6286 567.895 40.9679 566.097 39.6463C564.298 38.3248 563.398 36.6545 563.398 34.6355C563.398 32.1759 564.848 30.2487 567.749 28.8537C570.649 27.4587 574.705 26.6144 579.918 26.3208H580.909V25.2195C580.909 24.4486 580.872 23.8061 580.799 23.2922C580.725 22.7783 580.523 22.1542 580.193 21.42C579.863 20.6858 579.294 20.1352 578.486 19.7681C577.678 19.401 576.614 19.1991 575.292 19.1624C573.971 19.1257 572.98 19.1807 572.319 19.3276H572.044C572.594 20.1719 572.869 20.9979 572.869 21.8055C572.869 22.7966 572.557 23.6777 571.933 24.4486C571.309 25.2195 570.337 25.6233 569.015 25.66C567.657 25.66 566.684 25.2745 566.097 24.5036C565.509 23.7327 565.197 22.9251 565.16 22.0808ZM570.667 34.6355C570.667 35.8102 571.071 36.8013 571.878 37.6089C572.686 38.4165 573.64 38.8204 574.742 38.8204C576.063 38.8204 577.33 38.49 578.541 37.8292C579.753 37.1684 580.468 36.3425 580.689 35.3513L580.909 34.8557V28.8537H580.744C577.109 29.1474 574.521 29.8265 572.98 30.8911C571.438 31.9557 570.667 33.2038 570.667 34.6355Z" fill="black"/>
<path d="M593.236 38.3849C593.262 38.2291 593.301 38.0215 593.353 37.762C593.405 37.5024 593.561 37.0093 593.82 36.2826C594.08 35.5559 594.339 34.946 594.599 34.4529C594.858 33.9598 595.287 33.4796 595.884 33.0124C596.481 32.5453 597.077 32.3247 597.674 32.3506C598.609 32.3506 599.387 32.5842 600.01 33.0514C600.633 33.5185 601.022 33.9598 601.178 34.375C601.334 34.7903 601.412 35.0628 601.412 35.1926C601.412 35.2445 601.425 35.2704 601.451 35.2704L601.879 34.8422C603.462 33.1811 605.266 32.3506 607.29 32.3506C608.692 32.3506 609.821 32.701 610.677 33.4018C611.534 34.1025 611.975 35.1277 612.001 36.4773C612.027 37.8268 611.534 39.8642 610.521 42.5893C609.509 45.3145 609.016 46.9625 609.042 47.5335C609.042 48.2083 609.263 48.5457 609.704 48.5457C609.86 48.5457 609.976 48.5327 610.054 48.5068C610.807 48.377 611.482 47.8839 612.079 47.0274C612.676 46.1709 613.13 45.1328 613.441 43.913C613.493 43.7053 613.753 43.6015 614.22 43.6015C614.739 43.6015 614.998 43.7053 614.998 43.913C614.998 43.9389 614.947 44.1336 614.843 44.4969C614.635 45.2496 614.35 45.9893 613.986 46.716C613.623 47.4427 613.026 48.1694 612.195 48.8961C611.365 49.6228 610.47 49.9732 609.509 49.9472C608.289 49.9472 607.407 49.5968 606.862 48.8961C606.317 48.1953 606.044 47.4686 606.044 46.716C606.044 46.2229 606.512 44.6656 607.446 42.0443C608.38 39.423 608.86 37.4505 608.886 36.1269C608.886 34.5956 608.315 33.83 607.173 33.83H606.979C604.747 33.83 602.865 35.1406 601.334 37.762L601.061 38.2291L599.777 43.4458C598.92 46.8457 598.427 48.6755 598.297 48.935C597.96 49.6358 597.402 49.9861 596.623 49.9861C596.286 49.9861 596.013 49.9083 595.806 49.7525C595.598 49.5968 595.455 49.4411 595.378 49.2854C595.3 49.1297 595.274 48.9999 595.3 48.8961C595.3 48.5587 595.793 46.4435 596.779 42.5504C597.765 38.6574 598.284 36.5421 598.336 36.2047C598.362 36.075 598.375 35.7765 598.375 35.3093C598.375 34.2972 598.064 33.7911 597.441 33.7911C596.455 33.7911 595.637 35.0887 594.988 37.6841C594.832 38.2032 594.755 38.4757 594.755 38.5016C594.703 38.6574 594.456 38.7352 594.015 38.7352H593.47C593.314 38.5795 593.236 38.4627 593.236 38.3849Z" fill="black"/>
</svg>
